G75*
%MOIN*%
%OFA0B0*%
%FSLAX24Y24*%
%IPPOS*%
%LPD*%
%AMOC8*
5,1,8,0,0,1.08239X$1,22.5*
%
%ADD10C,0.0000*%
D10*
X000300Y001517D02*
X000300Y010017D01*
X000302Y010061D01*
X000308Y010104D01*
X000317Y010146D01*
X000330Y010188D01*
X000347Y010228D01*
X000367Y010267D01*
X000390Y010304D01*
X000417Y010338D01*
X000446Y010371D01*
X000479Y010400D01*
X000513Y010427D01*
X000550Y010450D01*
X000589Y010470D01*
X000629Y010487D01*
X000671Y010500D01*
X000713Y010509D01*
X000756Y010515D01*
X000800Y010517D01*
X004800Y010517D01*
X004844Y010515D01*
X004887Y010509D01*
X004929Y010500D01*
X004971Y010487D01*
X005011Y010470D01*
X005050Y010450D01*
X005087Y010427D01*
X005121Y010400D01*
X005154Y010371D01*
X005183Y010338D01*
X005210Y010304D01*
X005233Y010267D01*
X005253Y010228D01*
X005270Y010188D01*
X005283Y010146D01*
X005292Y010104D01*
X005298Y010061D01*
X005300Y010017D01*
X005300Y001517D01*
X005298Y001457D01*
X005293Y001396D01*
X005284Y001337D01*
X005271Y001278D01*
X005255Y001219D01*
X005235Y001162D01*
X005212Y001107D01*
X005185Y001052D01*
X005156Y001000D01*
X005123Y000949D01*
X005087Y000900D01*
X005049Y000854D01*
X005007Y000810D01*
X004963Y000768D01*
X004917Y000730D01*
X004868Y000694D01*
X004817Y000661D01*
X004765Y000632D01*
X004710Y000605D01*
X004655Y000582D01*
X004598Y000562D01*
X004539Y000546D01*
X004480Y000533D01*
X004421Y000524D01*
X004360Y000519D01*
X004300Y000517D01*
X001300Y000517D01*
X001240Y000519D01*
X001179Y000524D01*
X001120Y000533D01*
X001061Y000546D01*
X001002Y000562D01*
X000945Y000582D01*
X000890Y000605D01*
X000835Y000632D01*
X000783Y000661D01*
X000732Y000694D01*
X000683Y000730D01*
X000637Y000768D01*
X000593Y000810D01*
X000551Y000854D01*
X000513Y000900D01*
X000477Y000949D01*
X000444Y001000D01*
X000415Y001052D01*
X000388Y001107D01*
X000365Y001162D01*
X000345Y001219D01*
X000329Y001278D01*
X000316Y001337D01*
X000307Y001396D01*
X000302Y001457D01*
X000300Y001517D01*
M02*
