G75*
%MOIN*%
%OFA0B0*%
%FSLAX24Y24*%
%IPPOS*%
%LPD*%
%AMOC8*
5,1,8,0,0,1.08239X$1,22.5*
%
%ADD10C,0.0080*%
%ADD11R,0.1000X0.2000*%
%ADD12R,0.1250X0.1000*%
%ADD13C,0.0040*%
D10*
X000162Y000993D02*
X000162Y003040D01*
X005438Y003040D01*
X005438Y000993D01*
X000162Y000993D01*
X000550Y001517D02*
X001050Y001517D01*
X001175Y001767D02*
X000800Y001767D01*
X000425Y001767D01*
X000800Y001767D02*
X000800Y002017D01*
X000675Y001267D02*
X000925Y001267D01*
X000300Y004517D02*
X005300Y004517D01*
X005300Y007017D01*
X000300Y007017D01*
X000300Y004517D01*
X001307Y006057D02*
X001307Y006168D01*
X000860Y006615D01*
X000860Y006727D01*
X001307Y006727D01*
X001551Y006615D02*
X001551Y006504D01*
X001998Y006057D01*
X001551Y006057D01*
X001551Y006615D02*
X001662Y006727D01*
X001886Y006727D01*
X001998Y006615D01*
X002241Y006615D02*
X002353Y006727D01*
X002576Y006727D01*
X002688Y006615D01*
X002688Y006504D01*
X002576Y006392D01*
X002241Y006392D01*
X002241Y006615D02*
X002241Y006168D01*
X002353Y006057D01*
X002576Y006057D01*
X002688Y006168D01*
X002932Y006168D02*
X003044Y006057D01*
X003267Y006057D01*
X003379Y006168D01*
X002932Y006615D01*
X002932Y006168D01*
X002932Y006615D02*
X003044Y006727D01*
X003267Y006727D01*
X003379Y006615D01*
X003379Y006168D01*
X003622Y006392D02*
X004069Y006392D01*
X003734Y006727D01*
X003734Y006057D01*
X004313Y006057D02*
X004760Y006057D01*
X004536Y006057D02*
X004536Y006727D01*
X004760Y006504D01*
X004550Y005017D02*
X004552Y005048D01*
X004558Y005079D01*
X004568Y005109D01*
X004581Y005137D01*
X004598Y005164D01*
X004618Y005188D01*
X004641Y005210D01*
X004666Y005228D01*
X004694Y005243D01*
X004723Y005255D01*
X004753Y005263D01*
X004784Y005267D01*
X004816Y005267D01*
X004847Y005263D01*
X004877Y005255D01*
X004906Y005243D01*
X004934Y005228D01*
X004959Y005210D01*
X004982Y005188D01*
X005002Y005164D01*
X005019Y005137D01*
X005032Y005109D01*
X005042Y005079D01*
X005048Y005048D01*
X005050Y005017D01*
X005048Y004986D01*
X005042Y004955D01*
X005032Y004925D01*
X005019Y004897D01*
X005002Y004870D01*
X004982Y004846D01*
X004959Y004824D01*
X004934Y004806D01*
X004906Y004791D01*
X004877Y004779D01*
X004847Y004771D01*
X004816Y004767D01*
X004784Y004767D01*
X004753Y004771D01*
X004723Y004779D01*
X004694Y004791D01*
X004666Y004806D01*
X004641Y004824D01*
X004618Y004846D01*
X004598Y004870D01*
X004581Y004897D01*
X004568Y004925D01*
X004558Y004955D01*
X004552Y004986D01*
X004550Y005017D01*
D11*
X000800Y009517D03*
D12*
X000925Y002517D03*
D13*
X001395Y004787D02*
X001395Y005027D01*
X001395Y004907D02*
X001275Y005027D01*
X001215Y005027D01*
X001523Y004967D02*
X001523Y004907D01*
X001763Y004907D01*
X001763Y004847D02*
X001763Y004967D01*
X001703Y005027D01*
X001583Y005027D01*
X001523Y004967D01*
X001583Y004787D02*
X001703Y004787D01*
X001763Y004847D01*
X001889Y004787D02*
X002009Y004787D01*
X001949Y004787D02*
X001949Y005147D01*
X002009Y005147D01*
X002194Y005147D02*
X002194Y004787D01*
X002254Y004787D02*
X002134Y004787D01*
X002382Y004847D02*
X002382Y004967D01*
X002442Y005027D01*
X002563Y005027D01*
X002623Y004967D01*
X002623Y004847D01*
X002563Y004787D01*
X002442Y004787D01*
X002382Y004847D01*
X002254Y005147D02*
X002194Y005147D01*
X002131Y005387D02*
X002131Y005747D01*
X002011Y005627D01*
X001891Y005747D01*
X001891Y005387D01*
X001763Y005447D02*
X001763Y005567D01*
X001703Y005627D01*
X001583Y005627D01*
X001523Y005567D01*
X001523Y005447D01*
X001583Y005387D01*
X001703Y005387D01*
X001763Y005447D01*
X001395Y005627D02*
X001275Y005627D01*
X001335Y005687D02*
X001335Y005447D01*
X001275Y005387D01*
X001149Y005447D02*
X001149Y005567D01*
X001089Y005627D01*
X000969Y005627D01*
X000909Y005567D01*
X000909Y005447D01*
X000969Y005387D01*
X001089Y005387D01*
X001149Y005447D01*
X000781Y005507D02*
X000661Y005627D01*
X000601Y005627D01*
X000781Y005627D02*
X000781Y005387D01*
X002627Y005627D02*
X002687Y005627D01*
X002807Y005507D01*
X002807Y005387D02*
X002807Y005627D01*
X002935Y005567D02*
X002935Y005507D01*
X003175Y005507D01*
X003175Y005447D02*
X003175Y005567D01*
X003115Y005627D01*
X002995Y005627D01*
X002935Y005567D01*
X002995Y005387D02*
X003115Y005387D01*
X003175Y005447D01*
X003303Y005627D02*
X003423Y005387D01*
X003543Y005627D01*
X003671Y005567D02*
X003671Y005447D01*
X003732Y005387D01*
X003852Y005387D01*
X003912Y005447D01*
X003912Y005567D01*
X003852Y005627D01*
X003732Y005627D01*
X003671Y005567D01*
X004040Y005567D02*
X004100Y005507D01*
X004280Y005507D01*
X004160Y005507D02*
X004040Y005387D01*
X004040Y005567D02*
X004040Y005687D01*
X004100Y005747D01*
X004280Y005747D01*
X004280Y005387D01*
X004220Y005147D02*
X004100Y005147D01*
X004040Y005087D01*
X003912Y004967D02*
X003912Y004847D01*
X003852Y004787D01*
X003732Y004787D01*
X003671Y004847D01*
X003671Y004967D01*
X003732Y005027D01*
X003852Y005027D01*
X003912Y004967D01*
X004040Y004847D02*
X004100Y004787D01*
X004220Y004787D01*
X004280Y004847D01*
X004280Y005087D01*
X004220Y005147D01*
X003543Y005027D02*
X003543Y004787D01*
X003543Y005027D02*
X003363Y005027D01*
X003303Y004967D01*
X003303Y004787D01*
X003115Y004847D02*
X003055Y004787D01*
X003115Y004847D02*
X003115Y005087D01*
X003175Y005027D02*
X003055Y005027D01*
X002930Y005027D02*
X002930Y004787D01*
X002930Y004907D02*
X002809Y005027D01*
X002749Y005027D01*
M02*
