%
M48
M72
T01C0.0130
T02C0.0315
T03C0.0400
%
T01
X2050Y4517
X3050Y4517
X3550Y4517
X3300Y6017
X3550Y6767
X4800Y6267
X2300Y6017
X1175Y6392
X550Y4767
X4050Y1142
T02
X1550Y1517
X1050Y2517
X2050Y2517
X2550Y1517
X3050Y2517
X3550Y1517
X4050Y2517
X4550Y1517
T03
X4800Y9017
X4800Y10017
X3800Y10017
X3800Y9017
X2800Y9017
X2800Y10017
X1800Y10017
X1800Y9017
X800Y9017
X800Y10017
M30
