G75*
%MOIN*%
%OFA0B0*%
%FSLAX24Y24*%
%IPPOS*%
%LPD*%
%AMOC8*
5,1,8,0,0,1.08239X$1,22.5*
%
%ADD10C,0.0050*%
%ADD11C,0.0080*%
%ADD12R,0.0250X0.1000*%
%ADD13C,0.0070*%
%ADD14C,0.0040*%
D10*
X003284Y000343D02*
X004249Y000343D01*
X004249Y000657D01*
X003284Y000657D01*
X003284Y000343D01*
X003284Y000657D02*
X003294Y000815D01*
X003530Y000815D01*
X003609Y000756D01*
X003924Y000756D01*
X004003Y000815D01*
X004239Y000815D01*
X004249Y000657D01*
X003845Y000500D02*
X003767Y000421D01*
X003688Y000500D01*
X003767Y000579D02*
X003767Y000421D01*
X001129Y005976D02*
X006404Y005976D01*
X006404Y008024D01*
X001129Y008024D01*
X001129Y005976D01*
D11*
X002477Y004900D02*
X002477Y003600D01*
X005057Y003600D01*
X005057Y004900D01*
X002477Y004900D01*
D12*
X001392Y007000D03*
D13*
X001666Y008285D02*
X001982Y008285D01*
X001982Y008916D01*
X001666Y008916D01*
X001561Y008810D01*
X001561Y008705D01*
X001666Y008600D01*
X001982Y008600D01*
X001666Y008600D02*
X001561Y008495D01*
X001561Y008390D01*
X001666Y008285D01*
X002561Y008390D02*
X002561Y008600D01*
X002771Y008600D01*
X002561Y008390D02*
X002666Y008285D01*
X002877Y008285D01*
X002982Y008390D01*
X002982Y008810D01*
X002877Y008916D01*
X002666Y008916D01*
X002561Y008810D01*
X003561Y008810D02*
X003561Y008916D01*
X003561Y008810D02*
X003771Y008600D01*
X003771Y008285D01*
X003771Y008600D02*
X003982Y008810D01*
X003982Y008916D01*
X004561Y008810D02*
X004561Y008390D01*
X004666Y008285D01*
X004877Y008285D01*
X004982Y008390D01*
X004982Y008810D01*
X004877Y008916D01*
X004666Y008916D01*
X004561Y008810D01*
X005561Y008810D02*
X005561Y008600D01*
X005666Y008495D01*
X005982Y008495D01*
X005982Y008285D02*
X005982Y008916D01*
X005666Y008916D01*
X005561Y008810D01*
X005771Y008495D02*
X005561Y008285D01*
D14*
X001702Y001270D02*
X001428Y001270D01*
X001428Y001544D02*
X001428Y001612D01*
X001497Y001680D01*
X001634Y001680D01*
X001702Y001612D01*
X001843Y001612D02*
X001843Y001475D01*
X001911Y001407D01*
X002116Y001407D01*
X002116Y001270D02*
X002116Y001680D01*
X001911Y001680D01*
X001843Y001612D01*
X001979Y001407D02*
X001843Y001270D01*
X001702Y001270D02*
X001428Y001544D01*
X001980Y002219D02*
X002049Y002219D01*
X002185Y002082D01*
X002185Y001945D02*
X002185Y002219D01*
X002326Y002150D02*
X002326Y002013D01*
X002394Y001945D01*
X002531Y001945D01*
X002600Y002013D01*
X002600Y002150D01*
X002531Y002219D01*
X002394Y002219D01*
X002326Y002150D01*
X002739Y002219D02*
X002876Y002219D01*
X002808Y002287D02*
X002808Y002013D01*
X002739Y001945D01*
X003017Y002013D02*
X003085Y001945D01*
X003222Y001945D01*
X003290Y002013D01*
X003290Y002150D01*
X003222Y002219D01*
X003085Y002219D01*
X003017Y002150D01*
X003017Y002013D01*
X003431Y001945D02*
X003431Y002355D01*
X003568Y002219D01*
X003705Y002355D01*
X003705Y001945D01*
X003774Y001680D02*
X003774Y001270D01*
X003706Y001270D02*
X003843Y001270D01*
X003984Y001338D02*
X003984Y001475D01*
X004052Y001544D01*
X004189Y001544D01*
X004257Y001475D01*
X004257Y001338D01*
X004189Y001270D01*
X004052Y001270D01*
X003984Y001338D01*
X003843Y001680D02*
X003774Y001680D01*
X003566Y001680D02*
X003498Y001680D01*
X003498Y001270D01*
X003566Y001270D02*
X003430Y001270D01*
X003290Y001338D02*
X003290Y001475D01*
X003222Y001544D01*
X003085Y001544D01*
X003017Y001475D01*
X003017Y001407D01*
X003290Y001407D01*
X003290Y001338D02*
X003222Y001270D01*
X003085Y001270D01*
X002876Y001270D02*
X002876Y001544D01*
X002876Y001407D02*
X002739Y001544D01*
X002671Y001544D01*
X004259Y002219D02*
X004327Y002219D01*
X004464Y002082D01*
X004464Y001945D02*
X004464Y002219D01*
X004605Y002150D02*
X004605Y002082D01*
X004879Y002082D01*
X004879Y002150D02*
X004879Y002013D01*
X004810Y001945D01*
X004673Y001945D01*
X004605Y002150D02*
X004673Y002219D01*
X004810Y002219D01*
X004879Y002150D01*
X005019Y002219D02*
X005156Y001945D01*
X005293Y002219D01*
X005434Y002150D02*
X005434Y002013D01*
X005502Y001945D01*
X005639Y001945D01*
X005707Y002013D01*
X005707Y002150D01*
X005639Y002219D01*
X005502Y002219D01*
X005434Y002150D01*
X005848Y002150D02*
X005916Y002082D01*
X006122Y002082D01*
X006122Y001945D02*
X006122Y002355D01*
X005916Y002355D01*
X005848Y002287D01*
X005848Y002150D01*
X005985Y002082D02*
X005848Y001945D01*
X005916Y001680D02*
X005848Y001612D01*
X005916Y001680D02*
X006053Y001680D01*
X006122Y001612D01*
X006122Y001338D01*
X006053Y001270D01*
X005916Y001270D01*
X005848Y001338D01*
X005707Y001338D02*
X005707Y001475D01*
X005639Y001544D01*
X005502Y001544D01*
X005434Y001475D01*
X005434Y001338D01*
X005502Y001270D01*
X005639Y001270D01*
X005707Y001338D01*
X005293Y001270D02*
X005293Y001544D01*
X005088Y001544D01*
X005019Y001475D01*
X005019Y001270D01*
X004810Y001338D02*
X004742Y001270D01*
X004810Y001338D02*
X004810Y001612D01*
X004879Y001544D02*
X004742Y001544D01*
X004602Y001544D02*
X004602Y001270D01*
X004602Y001407D02*
X004466Y001544D01*
X004397Y001544D01*
M02*
