%
M48
M72
T01C0.0130
T02C0.0315
%
T01
X2867Y4410
X2147Y4570
X3747Y4650
X4307Y3690
X4787Y3610
X5187Y3610
X5027Y2730
X4967Y1850
X3907Y570
X4867Y4650
X5587Y6010
X5027Y6970
X5507Y7530
X5347Y8570
X4087Y8650
X3347Y8410
X2627Y7210
X3767Y7000
T02
X3517Y6500
X4017Y7500
X4517Y6500
X5017Y7500
X5517Y6500
X3017Y7500
X2517Y6500
X2017Y7500
M30
