G75*
%MOIN*%
%OFA0B0*%
%FSLAX24Y24*%
%IPPOS*%
%LPD*%
%AMOC8*
5,1,8,0,0,1.08239X$1,22.5*
%
%ADD10C,0.0515*%
%ADD11R,0.0236X0.0866*%
%ADD12C,0.0740*%
%ADD13C,0.0120*%
%ADD14C,0.0270*%
%ADD15C,0.0160*%
D10*
X001550Y001517D03*
X001050Y002517D03*
X002050Y002517D03*
X002550Y001517D03*
X003050Y002517D03*
X003550Y001517D03*
X004050Y002517D03*
X004550Y001517D03*
D11*
X004550Y003798D03*
X004050Y003798D03*
X003550Y003798D03*
X003050Y003798D03*
X002550Y003798D03*
X002050Y003798D03*
X001550Y003798D03*
X001050Y003798D03*
X000550Y003798D03*
X000550Y007735D03*
X001050Y007735D03*
X001550Y007735D03*
X002050Y007735D03*
X002550Y007735D03*
X003050Y007735D03*
X003550Y007735D03*
X004050Y007735D03*
X004550Y007735D03*
X005050Y007735D03*
X005050Y003798D03*
D12*
X004800Y009017D03*
X004800Y010017D03*
X003800Y010017D03*
X003800Y009017D03*
X002800Y009017D03*
X002800Y010017D03*
X001800Y010017D03*
X001800Y009017D03*
X000800Y009017D03*
X000800Y010017D03*
D13*
X000596Y001158D02*
X000741Y000958D01*
X000941Y000813D01*
X001176Y000736D01*
X001300Y000727D01*
X004300Y000727D01*
X004424Y000736D01*
X004659Y000813D01*
X004859Y000958D01*
X005004Y001158D01*
X005080Y001393D01*
X005090Y001517D01*
X005090Y003185D01*
X004857Y003185D01*
X004800Y003242D01*
X004800Y003242D01*
X004790Y003232D01*
X004790Y001891D01*
X004798Y001888D01*
X004921Y001764D01*
X004987Y001604D01*
X004987Y001430D01*
X004921Y001269D01*
X004798Y001146D01*
X004637Y001079D01*
X004463Y001079D01*
X004302Y001146D01*
X004179Y001269D01*
X004113Y001430D01*
X004113Y001604D01*
X004179Y001764D01*
X004302Y001888D01*
X004310Y001891D01*
X004310Y002158D01*
X004298Y002146D01*
X004137Y002079D01*
X003963Y002079D01*
X003802Y002146D01*
X003679Y002269D01*
X003613Y002430D01*
X003613Y002604D01*
X003679Y002764D01*
X003802Y002888D01*
X003810Y002891D01*
X003810Y003232D01*
X003800Y003242D01*
X003800Y003242D01*
X003743Y003185D01*
X003357Y003185D01*
X003300Y003242D01*
X003300Y003242D01*
X003243Y003185D01*
X002857Y003185D01*
X002800Y003242D01*
X002800Y003242D01*
X002790Y003232D01*
X002790Y002875D01*
X002802Y002888D01*
X002963Y002954D01*
X003137Y002954D01*
X003298Y002888D01*
X003421Y002764D01*
X003487Y002604D01*
X003487Y002430D01*
X003421Y002269D01*
X003298Y002146D01*
X003290Y002143D01*
X003290Y001875D01*
X003302Y001888D01*
X003463Y001954D01*
X003637Y001954D01*
X003798Y001888D01*
X003921Y001764D01*
X003987Y001604D01*
X003987Y001430D01*
X003921Y001269D01*
X003798Y001146D01*
X003637Y001079D01*
X003463Y001079D01*
X003302Y001146D01*
X003272Y001176D01*
X003253Y001131D01*
X003003Y000881D01*
X002936Y000813D01*
X002848Y000777D01*
X002252Y000777D01*
X002164Y000813D01*
X001914Y001063D01*
X001847Y001131D01*
X001828Y001176D01*
X001798Y001146D01*
X001637Y001079D01*
X001463Y001079D01*
X001302Y001146D01*
X001179Y001269D01*
X001113Y001430D01*
X001113Y001604D01*
X001179Y001764D01*
X001302Y001888D01*
X001463Y001954D01*
X001523Y001954D01*
X001414Y002063D01*
X001347Y002131D01*
X001319Y002196D01*
X001269Y002160D01*
X001210Y002130D01*
X001148Y002109D01*
X001083Y002099D01*
X001069Y002099D01*
X001069Y002498D01*
X001031Y002498D01*
X000633Y002498D01*
X000633Y002484D01*
X000643Y002419D01*
X000663Y002356D01*
X000693Y002298D01*
X000732Y002245D01*
X000778Y002198D01*
X000831Y002160D01*
X000890Y002130D01*
X000952Y002109D01*
X001017Y002099D01*
X001031Y002099D01*
X001031Y002498D01*
X001031Y002535D01*
X000633Y002535D01*
X000633Y002550D01*
X000643Y002614D01*
X000663Y002677D01*
X000693Y002735D01*
X000732Y002789D01*
X000778Y002835D01*
X000831Y002874D01*
X000890Y002904D01*
X000952Y002924D01*
X001017Y002934D01*
X001031Y002934D01*
X001031Y002535D01*
X001069Y002535D01*
X001069Y002909D01*
X000914Y003063D01*
X000847Y003131D01*
X000810Y003219D01*
X000810Y003232D01*
X000786Y003257D01*
X000766Y003237D01*
X000730Y003216D01*
X000689Y003205D01*
X000550Y003205D01*
X000550Y003798D01*
X000550Y003798D01*
X000550Y003205D01*
X000510Y003205D01*
X000510Y001517D01*
X000520Y001393D01*
X000596Y001158D01*
X000632Y001109D02*
X001391Y001109D01*
X001220Y001228D02*
X000573Y001228D01*
X000535Y001346D02*
X001147Y001346D01*
X001113Y001465D02*
X000514Y001465D01*
X000510Y001583D02*
X001113Y001583D01*
X001153Y001702D02*
X000510Y001702D01*
X000510Y001820D02*
X001235Y001820D01*
X001426Y001939D02*
X000510Y001939D01*
X000510Y002057D02*
X001420Y002057D01*
X001328Y002176D02*
X001291Y002176D01*
X001069Y002176D02*
X001031Y002176D01*
X001031Y002294D02*
X001069Y002294D01*
X001069Y002413D02*
X001031Y002413D01*
X001050Y002517D02*
X001050Y001267D01*
X001550Y000767D01*
X003675Y000767D01*
X004050Y001142D01*
X003880Y001228D02*
X004220Y001228D01*
X004147Y001346D02*
X003953Y001346D01*
X003987Y001465D02*
X004113Y001465D01*
X004113Y001583D02*
X003987Y001583D01*
X003947Y001702D02*
X004153Y001702D01*
X004235Y001820D02*
X003865Y001820D01*
X003674Y001939D02*
X004310Y001939D01*
X004310Y002057D02*
X003290Y002057D01*
X003290Y001939D02*
X003426Y001939D01*
X003328Y002176D02*
X003772Y002176D01*
X003669Y002294D02*
X003431Y002294D01*
X003480Y002413D02*
X003620Y002413D01*
X003613Y002531D02*
X003487Y002531D01*
X003468Y002650D02*
X003632Y002650D01*
X003683Y002768D02*
X003417Y002768D01*
X003299Y002887D02*
X003801Y002887D01*
X003810Y003005D02*
X002790Y003005D01*
X002790Y002887D02*
X002801Y002887D01*
X002790Y003124D02*
X003810Y003124D01*
X004050Y002517D02*
X004050Y003798D01*
X004550Y003798D02*
X004550Y001517D01*
X004790Y001939D02*
X005090Y001939D01*
X005090Y002057D02*
X004790Y002057D01*
X004790Y002176D02*
X005090Y002176D01*
X005090Y002294D02*
X004790Y002294D01*
X004790Y002413D02*
X005090Y002413D01*
X005090Y002531D02*
X004790Y002531D01*
X004790Y002650D02*
X005090Y002650D01*
X005090Y002768D02*
X004790Y002768D01*
X004790Y002887D02*
X005090Y002887D01*
X005090Y003005D02*
X004790Y003005D01*
X004790Y003124D02*
X005090Y003124D01*
X005050Y003798D02*
X005050Y006017D01*
X004800Y006267D01*
X004550Y006767D02*
X005050Y007267D01*
X005050Y007735D01*
X004550Y007735D02*
X004550Y008517D01*
X004300Y008767D01*
X004300Y009517D01*
X004800Y010017D01*
X003800Y009017D02*
X004050Y008767D01*
X004050Y007735D01*
X003550Y007735D02*
X003550Y008517D01*
X003300Y008767D01*
X003300Y009517D01*
X003800Y010017D01*
X003144Y008583D02*
X003164Y008563D01*
X003310Y008417D01*
X003310Y008301D01*
X003300Y008291D01*
X003243Y008348D01*
X002857Y008348D01*
X002800Y008291D01*
X002743Y008348D01*
X002357Y008348D01*
X002300Y008291D01*
X002243Y008348D01*
X001857Y008348D01*
X001800Y008291D01*
X001743Y008348D01*
X001357Y008348D01*
X001300Y008291D01*
X001243Y008348D01*
X000857Y008348D01*
X000800Y008291D01*
X000743Y008348D01*
X000510Y008348D01*
X000510Y008572D01*
X000522Y008563D01*
X000597Y008525D01*
X000676Y008500D01*
X000758Y008487D01*
X000760Y008487D01*
X000760Y008977D01*
X000840Y008977D01*
X000840Y008487D01*
X000842Y008487D01*
X000924Y008500D01*
X001003Y008525D01*
X001078Y008563D01*
X001145Y008612D01*
X001204Y008671D01*
X001253Y008739D01*
X001290Y008811D01*
X001334Y008705D01*
X001488Y008550D01*
X001691Y008467D01*
X001909Y008467D01*
X002112Y008550D01*
X002266Y008705D01*
X002300Y008787D01*
X002334Y008705D01*
X002488Y008550D01*
X002691Y008467D01*
X002909Y008467D01*
X003112Y008550D01*
X003144Y008583D01*
X003136Y008575D02*
X003153Y008575D01*
X003271Y008456D02*
X000510Y008456D01*
X000753Y008338D02*
X000847Y008338D01*
X000840Y008575D02*
X000760Y008575D01*
X000760Y008693D02*
X000840Y008693D01*
X000840Y008812D02*
X000760Y008812D01*
X000760Y008930D02*
X000840Y008930D01*
X000800Y009017D02*
X000800Y006767D01*
X001175Y006392D01*
X001175Y004767D01*
X000550Y004142D01*
X000550Y003798D01*
X000550Y003017D01*
X001050Y002517D01*
X001031Y002531D02*
X000510Y002531D01*
X000510Y002413D02*
X000645Y002413D01*
X000696Y002294D02*
X000510Y002294D01*
X000510Y002176D02*
X000809Y002176D01*
X000654Y002650D02*
X000510Y002650D01*
X000510Y002768D02*
X000717Y002768D01*
X000857Y002887D02*
X000510Y002887D01*
X000510Y003005D02*
X000972Y003005D01*
X001031Y002887D02*
X001069Y002887D01*
X001069Y002768D02*
X001031Y002768D01*
X001031Y002650D02*
X001069Y002650D01*
X000854Y003124D02*
X000510Y003124D01*
X000550Y003242D02*
X000550Y003242D01*
X000550Y003361D02*
X000550Y003361D01*
X000550Y003479D02*
X000550Y003479D01*
X000550Y003598D02*
X000550Y003598D01*
X000550Y003716D02*
X000550Y003716D01*
X000550Y003798D02*
X000550Y004391D01*
X000510Y004391D01*
X000510Y004452D01*
X000613Y004452D01*
X000728Y004500D01*
X000817Y004588D01*
X000865Y004704D01*
X000865Y004829D01*
X000817Y004945D01*
X000790Y004972D01*
X000790Y007169D01*
X000800Y007179D01*
X000810Y007169D01*
X000810Y007094D01*
X000847Y007006D01*
X000914Y006938D01*
X001310Y006542D01*
X001310Y004969D01*
X001347Y004881D01*
X001414Y004813D01*
X001735Y004492D01*
X001735Y004454D01*
X001760Y004394D01*
X001743Y004411D01*
X001357Y004411D01*
X001300Y004354D01*
X001243Y004411D01*
X000857Y004411D01*
X000786Y004340D01*
X000766Y004359D01*
X000730Y004380D01*
X000689Y004391D01*
X000550Y004391D01*
X000550Y003798D01*
X000550Y003798D01*
X000550Y003835D02*
X000550Y003835D01*
X000550Y003953D02*
X000550Y003953D01*
X000550Y004072D02*
X000550Y004072D01*
X000550Y004190D02*
X000550Y004190D01*
X000550Y004309D02*
X000550Y004309D01*
X000510Y004427D02*
X001746Y004427D01*
X001682Y004546D02*
X000774Y004546D01*
X000848Y004664D02*
X001563Y004664D01*
X001445Y004783D02*
X000865Y004783D01*
X000835Y004901D02*
X001338Y004901D01*
X001310Y005020D02*
X000790Y005020D01*
X000790Y005138D02*
X001310Y005138D01*
X001310Y005257D02*
X000790Y005257D01*
X000790Y005375D02*
X001310Y005375D01*
X001310Y005494D02*
X000790Y005494D01*
X000790Y005612D02*
X001310Y005612D01*
X001310Y005731D02*
X000790Y005731D01*
X000790Y005849D02*
X001310Y005849D01*
X001310Y005968D02*
X000790Y005968D01*
X000790Y006086D02*
X001310Y006086D01*
X001310Y006205D02*
X000790Y006205D01*
X000790Y006323D02*
X001310Y006323D01*
X001310Y006442D02*
X000790Y006442D01*
X000790Y006560D02*
X001292Y006560D01*
X001174Y006679D02*
X000790Y006679D01*
X000790Y006797D02*
X001055Y006797D01*
X000937Y006916D02*
X000790Y006916D01*
X000790Y007034D02*
X000835Y007034D01*
X000810Y007153D02*
X000790Y007153D01*
X001050Y007142D02*
X001050Y007735D01*
X000550Y007735D02*
X000550Y004767D01*
X001050Y003798D02*
X001050Y003267D01*
X001550Y002767D01*
X001550Y002267D01*
X002050Y001767D01*
X002050Y001267D01*
X002300Y001017D01*
X002800Y001017D01*
X003050Y001267D01*
X003050Y002517D01*
X002550Y001517D02*
X002550Y003798D01*
X002050Y003798D02*
X002050Y002517D01*
X001868Y001109D02*
X001709Y001109D01*
X001987Y000991D02*
X000718Y000991D01*
X000860Y000872D02*
X002105Y000872D01*
X002995Y000872D02*
X004740Y000872D01*
X004882Y000991D02*
X003113Y000991D01*
X003232Y001109D02*
X003391Y001109D01*
X003709Y001109D02*
X004391Y001109D01*
X004477Y000754D02*
X001123Y000754D01*
X000800Y003242D02*
X000771Y003242D01*
X002050Y004517D02*
X001550Y005017D01*
X001550Y006642D01*
X001050Y007142D01*
X001550Y007017D02*
X001550Y007735D01*
X002050Y007735D02*
X002050Y006267D01*
X002300Y006017D01*
X002550Y006392D02*
X002800Y006142D01*
X002800Y005267D01*
X003550Y004517D01*
X003050Y004517D02*
X001800Y005767D01*
X001800Y006767D01*
X001550Y007017D01*
X002550Y006392D02*
X002550Y007735D01*
X003050Y007735D02*
X003050Y007267D01*
X003550Y006767D01*
X004050Y006767D02*
X003300Y006017D01*
X004050Y006767D02*
X004550Y006767D01*
X003310Y008338D02*
X003253Y008338D01*
X002847Y008338D02*
X002753Y008338D01*
X002464Y008575D02*
X002136Y008575D01*
X002254Y008693D02*
X002346Y008693D01*
X002347Y008338D02*
X002253Y008338D01*
X001847Y008338D02*
X001753Y008338D01*
X001464Y008575D02*
X001093Y008575D01*
X001220Y008693D02*
X001346Y008693D01*
X001347Y008338D02*
X001253Y008338D01*
X000800Y009017D02*
X000800Y010017D01*
X000760Y009977D02*
X000840Y009977D01*
X000840Y009057D01*
X000760Y009057D01*
X000760Y009547D01*
X000760Y009977D01*
X000760Y009878D02*
X000840Y009878D01*
X000840Y009760D02*
X000760Y009760D01*
X000760Y009641D02*
X000840Y009641D01*
X000840Y009523D02*
X000760Y009523D01*
X000760Y009404D02*
X000840Y009404D01*
X000840Y009286D02*
X000760Y009286D01*
X000760Y009167D02*
X000840Y009167D01*
X004865Y001820D02*
X005090Y001820D01*
X005090Y001702D02*
X004947Y001702D01*
X004987Y001583D02*
X005090Y001583D01*
X005086Y001465D02*
X004987Y001465D01*
X004953Y001346D02*
X005065Y001346D01*
X005027Y001228D02*
X004880Y001228D01*
X004968Y001109D02*
X004709Y001109D01*
D14*
X004050Y001142D03*
X003550Y004517D03*
X003050Y004517D03*
X002050Y004517D03*
X002300Y006017D03*
X003300Y006017D03*
X003550Y006767D03*
X004800Y006267D03*
X001175Y006392D03*
X000550Y004767D03*
D15*
X001800Y009017D02*
X002800Y010017D01*
M02*
