G75*
%MOIN*%
%OFA0B0*%
%FSLAX24Y24*%
%IPPOS*%
%LPD*%
%AMOC8*
5,1,8,0,0,1.08239X$1,22.5*
%
%ADD10C,0.0050*%
%ADD11C,0.0080*%
%ADD12R,0.1000X0.2000*%
%ADD13R,0.1000X0.1000*%
%ADD14C,0.0040*%
D10*
X002318Y000609D02*
X003282Y000609D01*
X003282Y000924D01*
X002318Y000924D01*
X002328Y001082D01*
X002564Y001082D01*
X002643Y001023D01*
X002957Y001023D01*
X003036Y001082D01*
X003272Y001082D01*
X003282Y000924D01*
X002879Y000767D02*
X002800Y000688D01*
X002721Y000767D01*
X002800Y000845D02*
X002800Y000688D01*
X002318Y000609D02*
X002318Y000924D01*
X002050Y003892D02*
X002050Y004267D01*
X002550Y005017D02*
X003050Y005017D01*
X003050Y006017D01*
X002800Y006017D01*
X002550Y006017D01*
X002550Y005017D01*
X002800Y005392D02*
X002800Y005642D01*
X002925Y005517D01*
X002800Y005642D02*
X002675Y005517D01*
X002800Y006017D02*
X002800Y006217D01*
X002945Y006292D02*
X002945Y006592D01*
X002795Y006742D01*
X002645Y006592D01*
X002645Y006292D01*
X002645Y006517D02*
X002945Y006517D01*
X003105Y006742D02*
X003105Y006292D01*
X003405Y006292D01*
X003566Y006292D02*
X003866Y006292D01*
X003566Y006292D02*
X003566Y006742D01*
X002485Y006742D02*
X002184Y006742D01*
X002335Y006742D02*
X002335Y006292D01*
X002024Y006367D02*
X001949Y006292D01*
X001799Y006292D01*
X001724Y006367D01*
X001799Y006517D02*
X001949Y006517D01*
X002024Y006442D01*
X002024Y006367D01*
X002024Y006667D02*
X001949Y006742D01*
X001799Y006742D01*
X001724Y006667D01*
X001724Y006592D01*
X001799Y006517D01*
X004050Y004267D02*
X004050Y003892D01*
D11*
X004800Y003017D02*
X004800Y002767D01*
X005175Y002767D01*
X005050Y002517D02*
X004550Y002517D01*
X004425Y002767D02*
X004800Y002767D01*
X004675Y002267D02*
X004925Y002267D01*
X003351Y007477D02*
X003351Y007792D01*
X003115Y007792D01*
X003300Y008017D02*
X003300Y009517D01*
X004300Y009517D01*
X004300Y008517D01*
X004300Y009517D02*
X005300Y009517D01*
X003300Y009517D02*
X001300Y009517D01*
X000800Y008517D02*
X000800Y008267D01*
X001175Y008267D01*
X001050Y008017D02*
X000550Y008017D01*
X000425Y008267D02*
X000800Y008267D01*
X000925Y007767D02*
X000675Y007767D01*
X002249Y007792D02*
X002249Y007477D01*
X002249Y007792D02*
X002485Y007792D01*
D12*
X000800Y009517D03*
D13*
X004800Y003517D03*
D14*
X004487Y004412D02*
X004367Y004412D01*
X004307Y004472D01*
X004179Y004532D02*
X004179Y004772D01*
X004307Y004712D02*
X004367Y004772D01*
X004487Y004772D01*
X004547Y004712D01*
X004547Y004652D01*
X004487Y004592D01*
X004547Y004532D01*
X004547Y004472D01*
X004487Y004412D01*
X004487Y004592D02*
X004427Y004592D01*
X004179Y004532D02*
X004058Y004412D01*
X003938Y004532D01*
X003938Y004772D01*
X003810Y004712D02*
X003810Y004652D01*
X003750Y004592D01*
X003810Y004532D01*
X003810Y004472D01*
X003750Y004412D01*
X003630Y004412D01*
X003570Y004472D01*
X003427Y004272D02*
X003427Y003912D01*
X003307Y003912D02*
X003547Y003912D01*
X003307Y004152D02*
X003427Y004272D01*
X003179Y004212D02*
X003179Y004152D01*
X003118Y004092D01*
X002938Y004092D01*
X002810Y004092D02*
X002810Y004212D01*
X002750Y004272D01*
X002570Y004272D01*
X002570Y003912D01*
X002570Y004032D02*
X002750Y004032D01*
X002810Y004092D01*
X002938Y003912D02*
X002938Y004272D01*
X003118Y004272D01*
X003179Y004212D01*
X003118Y004092D02*
X003179Y004032D01*
X003179Y003972D01*
X003118Y003912D01*
X002938Y003912D01*
X002487Y004412D02*
X002367Y004412D01*
X002307Y004472D01*
X002547Y004712D01*
X002547Y004472D01*
X002487Y004412D01*
X002307Y004472D02*
X002307Y004712D01*
X002367Y004772D01*
X002487Y004772D01*
X002547Y004712D01*
X002179Y004712D02*
X002179Y004652D01*
X002118Y004592D01*
X001938Y004592D01*
X001810Y004592D02*
X001810Y004712D01*
X001750Y004772D01*
X001570Y004772D01*
X001570Y004412D01*
X001570Y004532D02*
X001750Y004532D01*
X001810Y004592D01*
X001938Y004412D02*
X001938Y004772D01*
X002118Y004772D01*
X002179Y004712D01*
X002118Y004592D02*
X002179Y004532D01*
X002179Y004472D01*
X002118Y004412D01*
X001938Y004412D01*
X001547Y004272D02*
X001427Y004212D01*
X001307Y004092D01*
X001487Y004092D01*
X001547Y004032D01*
X001547Y003972D01*
X001487Y003912D01*
X001367Y003912D01*
X001307Y003972D01*
X001307Y004092D01*
X001179Y003972D02*
X001179Y004212D01*
X001118Y004272D01*
X000938Y004272D01*
X000938Y003912D01*
X001118Y003912D01*
X001179Y003972D01*
X000810Y004092D02*
X000750Y004032D01*
X000570Y004032D01*
X000570Y003912D02*
X000570Y004272D01*
X000750Y004272D01*
X000810Y004212D01*
X000810Y004092D01*
X003570Y004712D02*
X003630Y004772D01*
X003750Y004772D01*
X003810Y004712D01*
X003750Y004592D02*
X003690Y004592D01*
X003620Y007237D02*
X003740Y007357D01*
X003620Y007477D01*
X003980Y007477D01*
X003980Y007605D02*
X003980Y007725D01*
X003980Y007665D02*
X003620Y007665D01*
X003620Y007605D02*
X003620Y007725D01*
X003680Y007851D02*
X003740Y007851D01*
X003800Y007911D01*
X003800Y008031D01*
X003860Y008091D01*
X003920Y008091D01*
X003980Y008031D01*
X003980Y007911D01*
X003920Y007851D01*
X003680Y007851D02*
X003620Y007911D01*
X003620Y008031D01*
X003680Y008091D01*
X003680Y008219D02*
X003920Y008219D01*
X003980Y008279D01*
X003980Y008399D01*
X003920Y008459D01*
X003680Y008459D01*
X003620Y008399D01*
X003620Y008279D01*
X003680Y008219D01*
X003158Y008222D02*
X003158Y008462D01*
X003098Y008522D01*
X002978Y008522D01*
X002918Y008462D01*
X002918Y008222D01*
X002978Y008162D01*
X003098Y008162D01*
X003158Y008222D01*
X002790Y008282D02*
X002790Y008522D01*
X002790Y008282D02*
X002670Y008162D01*
X002550Y008282D01*
X002550Y008522D01*
X002422Y008462D02*
X002422Y008342D01*
X002362Y008282D01*
X002182Y008282D01*
X002302Y008282D02*
X002422Y008162D01*
X002182Y008162D02*
X002182Y008522D01*
X002362Y008522D01*
X002422Y008462D01*
X002054Y008522D02*
X001813Y008522D01*
X001813Y008162D01*
X002054Y008162D01*
X001933Y008342D02*
X001813Y008342D01*
X001685Y008282D02*
X001685Y008222D01*
X001625Y008162D01*
X001505Y008162D01*
X001445Y008222D01*
X001505Y008342D02*
X001625Y008342D01*
X001685Y008282D01*
X001685Y008462D02*
X001625Y008522D01*
X001505Y008522D01*
X001445Y008462D01*
X001445Y008402D01*
X001505Y008342D01*
X003620Y007237D02*
X003980Y007237D01*
X004620Y007437D02*
X004620Y007617D01*
X004680Y007677D01*
X004800Y007677D01*
X004860Y007617D01*
X004860Y007437D01*
X004860Y007557D02*
X004980Y007677D01*
X004920Y007805D02*
X004980Y007865D01*
X004980Y007985D01*
X004920Y008045D01*
X004860Y008045D01*
X004800Y007985D01*
X004800Y007865D01*
X004740Y007805D01*
X004680Y007805D01*
X004620Y007865D01*
X004620Y007985D01*
X004680Y008045D01*
X004620Y008173D02*
X004620Y008413D01*
X004620Y008293D02*
X004980Y008293D01*
X004980Y007437D02*
X004620Y007437D01*
M02*
