G75*
%MOIN*%
%OFA0B0*%
%FSLAX24Y24*%
%IPPOS*%
%LPD*%
%AMOC8*
5,1,8,0,0,1.08239X$1,22.5*
%
%ADD10C,0.0080*%
%ADD11C,0.0050*%
%ADD12R,0.0250X0.1000*%
%ADD13C,0.0040*%
D10*
X003559Y001026D02*
X008835Y001026D01*
X008835Y003074D01*
X003559Y003074D01*
X003559Y001026D01*
X003697Y004800D02*
X008697Y004800D01*
X008697Y007300D01*
X003697Y007300D01*
X003697Y004800D01*
X004257Y006340D02*
X004704Y006340D01*
X004948Y006452D02*
X005059Y006340D01*
X005283Y006340D01*
X005395Y006452D01*
X004948Y006899D01*
X004948Y006452D01*
X004704Y006787D02*
X004481Y007011D01*
X004481Y006340D01*
X004948Y006899D02*
X005059Y007011D01*
X005283Y007011D01*
X005395Y006899D01*
X005395Y006452D01*
X005638Y006452D02*
X005638Y006899D01*
X006085Y006452D01*
X005974Y006340D01*
X005750Y006340D01*
X005638Y006452D01*
X005638Y006899D02*
X005750Y007011D01*
X005974Y007011D01*
X006085Y006899D01*
X006085Y006452D01*
X006329Y006340D02*
X006776Y006340D01*
X006552Y006340D02*
X006552Y007011D01*
X006776Y006787D01*
X007019Y006675D02*
X007466Y006675D01*
X007131Y007011D01*
X007131Y006340D01*
X007710Y006340D02*
X008157Y006340D01*
X007934Y006340D02*
X007934Y007011D01*
X008157Y006787D01*
X007947Y005300D02*
X007949Y005331D01*
X007955Y005362D01*
X007965Y005392D01*
X007978Y005420D01*
X007995Y005447D01*
X008015Y005471D01*
X008038Y005493D01*
X008063Y005511D01*
X008091Y005526D01*
X008120Y005538D01*
X008150Y005546D01*
X008181Y005550D01*
X008213Y005550D01*
X008244Y005546D01*
X008274Y005538D01*
X008303Y005526D01*
X008331Y005511D01*
X008356Y005493D01*
X008379Y005471D01*
X008399Y005447D01*
X008416Y005420D01*
X008429Y005392D01*
X008439Y005362D01*
X008445Y005331D01*
X008447Y005300D01*
X008445Y005269D01*
X008439Y005238D01*
X008429Y005208D01*
X008416Y005180D01*
X008399Y005153D01*
X008379Y005129D01*
X008356Y005107D01*
X008331Y005089D01*
X008303Y005074D01*
X008274Y005062D01*
X008244Y005054D01*
X008213Y005050D01*
X008181Y005050D01*
X008150Y005054D01*
X008120Y005062D01*
X008091Y005074D01*
X008063Y005089D01*
X008038Y005107D01*
X008015Y005129D01*
X007995Y005153D01*
X007978Y005180D01*
X007965Y005208D01*
X007955Y005238D01*
X007949Y005269D01*
X007947Y005300D01*
D11*
X007872Y008675D02*
X008022Y008825D01*
X007947Y008825D02*
X008172Y008825D01*
X008172Y008675D02*
X008172Y009125D01*
X007947Y009125D01*
X007872Y009050D01*
X007872Y008900D01*
X007947Y008825D01*
X007172Y008750D02*
X007097Y008675D01*
X006947Y008675D01*
X006872Y008750D01*
X006872Y009050D01*
X006947Y009125D01*
X007097Y009125D01*
X007172Y009050D01*
X007172Y008750D01*
X006172Y009050D02*
X006022Y008900D01*
X006022Y008675D01*
X006022Y008900D02*
X005872Y009050D01*
X005872Y009125D01*
X006172Y009125D02*
X006172Y009050D01*
X005172Y009050D02*
X005172Y008750D01*
X005097Y008675D01*
X004947Y008675D01*
X004872Y008750D01*
X004872Y008900D01*
X005022Y008900D01*
X005172Y009050D02*
X005097Y009125D01*
X004947Y009125D01*
X004872Y009050D01*
X004172Y009125D02*
X004172Y008675D01*
X003947Y008675D01*
X003872Y008750D01*
X003872Y008825D01*
X003947Y008900D01*
X004172Y008900D01*
X003947Y008900D02*
X003872Y008975D01*
X003872Y009050D01*
X003947Y009125D01*
X004172Y009125D01*
D12*
X008572Y002050D03*
D13*
X007617Y005070D02*
X007497Y005070D01*
X007437Y005130D01*
X007309Y005130D02*
X007249Y005070D01*
X007129Y005070D01*
X007069Y005130D01*
X007069Y005250D01*
X007129Y005310D01*
X007249Y005310D01*
X007309Y005250D01*
X007309Y005130D01*
X007437Y005370D02*
X007497Y005430D01*
X007617Y005430D01*
X007677Y005370D01*
X007677Y005130D01*
X007617Y005070D01*
X007677Y005670D02*
X007677Y006030D01*
X007497Y006030D01*
X007437Y005970D01*
X007437Y005850D01*
X007497Y005790D01*
X007677Y005790D01*
X007557Y005790D02*
X007437Y005670D01*
X007309Y005730D02*
X007249Y005670D01*
X007129Y005670D01*
X007069Y005730D01*
X007069Y005850D01*
X007129Y005910D01*
X007249Y005910D01*
X007309Y005850D01*
X007309Y005730D01*
X006940Y005910D02*
X006820Y005670D01*
X006700Y005910D01*
X006572Y005850D02*
X006572Y005730D01*
X006512Y005670D01*
X006392Y005670D01*
X006332Y005790D02*
X006572Y005790D01*
X006572Y005850D02*
X006512Y005910D01*
X006392Y005910D01*
X006332Y005850D01*
X006332Y005790D01*
X006204Y005790D02*
X006084Y005910D01*
X006024Y005910D01*
X006204Y005910D02*
X006204Y005670D01*
X006206Y005310D02*
X006146Y005310D01*
X006206Y005310D02*
X006327Y005190D01*
X006327Y005070D02*
X006327Y005310D01*
X006452Y005310D02*
X006572Y005310D01*
X006512Y005370D02*
X006512Y005130D01*
X006452Y005070D01*
X006700Y005070D02*
X006700Y005250D01*
X006760Y005310D01*
X006940Y005310D01*
X006940Y005070D01*
X006020Y005130D02*
X005960Y005070D01*
X005839Y005070D01*
X005779Y005130D01*
X005779Y005250D01*
X005839Y005310D01*
X005960Y005310D01*
X006020Y005250D01*
X006020Y005130D01*
X005651Y005070D02*
X005531Y005070D01*
X005591Y005070D02*
X005591Y005430D01*
X005651Y005430D01*
X005529Y005670D02*
X005529Y006030D01*
X005408Y005910D01*
X005288Y006030D01*
X005288Y005670D01*
X005160Y005730D02*
X005100Y005670D01*
X004980Y005670D01*
X004920Y005730D01*
X004920Y005850D01*
X004980Y005910D01*
X005100Y005910D01*
X005160Y005850D01*
X005160Y005730D01*
X005346Y005430D02*
X005346Y005070D01*
X005406Y005070D02*
X005286Y005070D01*
X005160Y005130D02*
X005160Y005250D01*
X005100Y005310D01*
X004980Y005310D01*
X004920Y005250D01*
X004920Y005190D01*
X005160Y005190D01*
X005160Y005130D02*
X005100Y005070D01*
X004980Y005070D01*
X004792Y005070D02*
X004792Y005310D01*
X004792Y005190D02*
X004672Y005310D01*
X004612Y005310D01*
X004672Y005670D02*
X004732Y005730D01*
X004732Y005970D01*
X004792Y005910D02*
X004672Y005910D01*
X004546Y005850D02*
X004546Y005730D01*
X004486Y005670D01*
X004366Y005670D01*
X004306Y005730D01*
X004306Y005850D01*
X004366Y005910D01*
X004486Y005910D01*
X004546Y005850D01*
X004178Y005790D02*
X004058Y005910D01*
X003998Y005910D01*
X004178Y005910D02*
X004178Y005670D01*
X005346Y005430D02*
X005406Y005430D01*
M02*
