G75*
%MOIN*%
%OFA0B0*%
%FSLAX24Y24*%
%IPPOS*%
%LPD*%
%AMOC8*
5,1,8,0,0,1.08239X$1,22.5*
%
%ADD10C,0.0515*%
%ADD11R,0.0394X0.0433*%
%ADD12R,0.0315X0.0315*%
%ADD13R,0.0433X0.0394*%
%ADD14R,0.0551X0.0354*%
%ADD15R,0.0500X0.1000*%
%ADD16C,0.0400*%
%ADD17R,0.0480X0.0880*%
%ADD18R,0.1417X0.0866*%
%ADD19C,0.0100*%
%ADD20C,0.0270*%
%ADD21C,0.0200*%
D10*
X004447Y002550D03*
X004947Y001550D03*
X005447Y002550D03*
X005947Y001550D03*
X006447Y002550D03*
X006947Y001550D03*
X007447Y002550D03*
X007947Y001550D03*
D11*
X007612Y006550D03*
X008282Y006550D03*
D12*
X004197Y006345D03*
X004197Y005755D03*
D13*
X004197Y006965D03*
X004197Y007635D03*
D14*
X005528Y000870D03*
X006866Y000870D03*
D15*
X007197Y009800D03*
X006197Y009800D03*
X005197Y009800D03*
X004197Y009800D03*
X008197Y009800D03*
D16*
X004947Y008800D03*
X004447Y008800D03*
X005447Y003300D03*
X005947Y003300D03*
X007447Y003300D03*
X007947Y003300D03*
D17*
X006857Y005330D03*
X005947Y005330D03*
X005037Y005330D03*
D18*
X005947Y007770D03*
D19*
X003897Y001550D02*
X003907Y001425D01*
X003984Y001187D01*
X004131Y000984D01*
X004334Y000837D01*
X004572Y000760D01*
X004697Y000750D01*
X005102Y000750D01*
X005102Y000831D01*
X005489Y000831D01*
X005489Y000909D01*
X005489Y001197D01*
X005232Y001197D01*
X005194Y001187D01*
X005160Y001167D01*
X005132Y001139D01*
X005112Y001105D01*
X005102Y001067D01*
X005102Y000909D01*
X005489Y000909D01*
X005566Y000909D01*
X005566Y001197D01*
X005695Y001197D01*
X005585Y001308D01*
X005520Y001465D01*
X005520Y001635D01*
X005585Y001792D01*
X005705Y001912D01*
X005862Y001977D01*
X006032Y001977D01*
X006189Y001912D01*
X006309Y001792D01*
X006375Y001635D01*
X006375Y001465D01*
X006309Y001308D01*
X006189Y001188D01*
X006032Y001123D01*
X005933Y001123D01*
X005943Y001105D01*
X005953Y001067D01*
X005953Y000909D01*
X005566Y000909D01*
X005566Y000831D01*
X005953Y000831D01*
X005953Y000750D01*
X006421Y000750D01*
X006421Y001118D01*
X006520Y001217D01*
X006675Y001217D01*
X006585Y001308D01*
X006520Y001465D01*
X006520Y001635D01*
X006585Y001792D01*
X006705Y001912D01*
X006862Y001977D01*
X007032Y001977D01*
X007189Y001912D01*
X007309Y001792D01*
X007342Y001713D01*
X007396Y001735D01*
X007518Y001735D01*
X007572Y001712D01*
X007599Y001764D01*
X007636Y001815D01*
X007682Y001861D01*
X007733Y001899D01*
X007791Y001928D01*
X007852Y001947D01*
X007915Y001957D01*
X007918Y001957D01*
X007918Y001579D01*
X007976Y001579D01*
X007976Y001957D01*
X007979Y001957D01*
X008042Y001947D01*
X008103Y001928D01*
X008161Y001899D01*
X008213Y001861D01*
X008258Y001815D01*
X008296Y001764D01*
X008325Y001706D01*
X008344Y001645D01*
X008355Y001582D01*
X008355Y001579D01*
X007976Y001579D01*
X007976Y001521D01*
X008355Y001521D01*
X008355Y001518D01*
X008344Y001455D01*
X008325Y001394D01*
X008296Y001336D01*
X008258Y001285D01*
X008213Y001239D01*
X008161Y001201D01*
X008103Y001172D01*
X008042Y001153D01*
X007979Y001143D01*
X007976Y001143D01*
X007976Y001521D01*
X007918Y001521D01*
X007918Y001143D01*
X007915Y001143D01*
X007852Y001153D01*
X007791Y001172D01*
X007733Y001201D01*
X007691Y001232D01*
X007630Y001171D01*
X007518Y001125D01*
X007463Y001125D01*
X007312Y000974D01*
X007312Y000750D01*
X007697Y000750D01*
X007822Y000760D01*
X008060Y000837D01*
X008263Y000984D01*
X008410Y001187D01*
X008487Y001425D01*
X008497Y001550D01*
X008497Y006163D01*
X008388Y006163D01*
X008402Y006131D01*
X008402Y006009D01*
X008356Y005897D01*
X008270Y005811D01*
X008158Y005765D01*
X008036Y005765D01*
X007924Y005811D01*
X007838Y005897D01*
X007792Y006009D01*
X007792Y006064D01*
X007692Y006163D01*
X007345Y006163D01*
X007246Y006263D01*
X007127Y006263D01*
X007127Y006165D02*
X007344Y006165D01*
X007246Y006263D02*
X007246Y006837D01*
X007345Y006937D01*
X007397Y006937D01*
X007397Y008565D01*
X007316Y008565D01*
X007204Y008611D01*
X007118Y008697D01*
X007072Y008809D01*
X007072Y008931D01*
X007118Y009043D01*
X007157Y009081D01*
X007157Y009130D01*
X006882Y009130D01*
X006882Y009049D01*
X006836Y008937D01*
X006764Y008865D01*
X007086Y008543D01*
X007127Y008444D01*
X007127Y005940D01*
X007167Y005940D01*
X007267Y005840D01*
X007267Y004820D01*
X007167Y004720D01*
X006547Y004720D01*
X006447Y004820D01*
X006447Y005840D01*
X006547Y005940D01*
X006587Y005940D01*
X006587Y007167D01*
X005307Y007167D01*
X005307Y005940D01*
X005347Y005940D01*
X005447Y005840D01*
X005447Y004932D01*
X007077Y003302D01*
X007077Y003374D01*
X007133Y003510D01*
X007237Y003614D01*
X007373Y003670D01*
X007521Y003670D01*
X007657Y003614D01*
X007697Y003573D01*
X007737Y003614D01*
X007873Y003670D01*
X008021Y003670D01*
X008157Y003614D01*
X008261Y003510D01*
X008317Y003374D01*
X008317Y003226D01*
X008261Y003090D01*
X008157Y002986D01*
X008021Y002930D01*
X007873Y002930D01*
X007737Y002986D01*
X007697Y003027D01*
X007657Y002986D01*
X007584Y002956D01*
X007689Y002912D01*
X007809Y002792D01*
X007875Y002635D01*
X007875Y002465D01*
X007809Y002308D01*
X007689Y002188D01*
X007532Y002123D01*
X007362Y002123D01*
X007205Y002188D01*
X007085Y002308D01*
X007020Y002465D01*
X007020Y002596D01*
X006317Y003298D01*
X006317Y003226D01*
X006261Y003090D01*
X006157Y002986D01*
X006021Y002930D01*
X005873Y002930D01*
X005737Y002986D01*
X005697Y003027D01*
X005657Y002986D01*
X005584Y002956D01*
X005689Y002912D01*
X005809Y002792D01*
X005875Y002635D01*
X005875Y002465D01*
X005809Y002308D01*
X005689Y002188D01*
X005532Y002123D01*
X005362Y002123D01*
X005205Y002188D01*
X005085Y002308D01*
X005020Y002465D01*
X005020Y002635D01*
X005085Y002792D01*
X005205Y002912D01*
X005310Y002956D01*
X005237Y002986D01*
X005133Y003090D01*
X005077Y003226D01*
X005077Y003374D01*
X005133Y003510D01*
X005237Y003614D01*
X005373Y003670D01*
X005521Y003670D01*
X005657Y003614D01*
X005697Y003573D01*
X005737Y003614D01*
X005873Y003670D01*
X005945Y003670D01*
X004895Y004720D01*
X004727Y004720D01*
X004627Y004820D01*
X004627Y005840D01*
X004727Y005940D01*
X004767Y005940D01*
X004767Y008344D01*
X004808Y008443D01*
X004818Y008453D01*
X004737Y008486D01*
X004697Y008527D01*
X004657Y008486D01*
X004521Y008430D01*
X004803Y008430D01*
X004767Y008332D02*
X004397Y008332D01*
X004397Y008430D02*
X004521Y008430D01*
X004397Y008430D02*
X004397Y008001D01*
X004484Y008001D01*
X004584Y007902D01*
X004584Y007367D01*
X004516Y007300D01*
X004584Y007233D01*
X004584Y006698D01*
X004492Y006606D01*
X004525Y006573D01*
X004525Y006117D01*
X004442Y006035D01*
X004447Y006032D01*
X004475Y006004D01*
X004494Y005970D01*
X004505Y005932D01*
X004505Y005783D01*
X004226Y005783D01*
X004226Y005726D01*
X004505Y005726D01*
X004505Y005577D01*
X004494Y005539D01*
X004475Y005505D01*
X004447Y005477D01*
X004412Y005457D01*
X004374Y005447D01*
X004226Y005447D01*
X004226Y005726D01*
X004168Y005726D01*
X004168Y005447D01*
X004020Y005447D01*
X003982Y005457D01*
X003947Y005477D01*
X003920Y005505D01*
X003900Y005539D01*
X003897Y005550D01*
X003897Y001550D01*
X003898Y001535D02*
X004520Y001535D01*
X004520Y001465D02*
X004585Y001308D01*
X004705Y001188D01*
X004862Y001123D01*
X005032Y001123D01*
X005189Y001188D01*
X005309Y001308D01*
X005375Y001465D01*
X005375Y001635D01*
X005309Y001792D01*
X005189Y001912D01*
X005032Y001977D01*
X004862Y001977D01*
X004705Y001912D01*
X004585Y001792D01*
X004520Y001635D01*
X004520Y001465D01*
X004531Y001437D02*
X003906Y001437D01*
X003935Y001338D02*
X004572Y001338D01*
X004653Y001240D02*
X003967Y001240D01*
X004018Y001141D02*
X004817Y001141D01*
X005077Y001141D02*
X005134Y001141D01*
X005102Y001043D02*
X004089Y001043D01*
X004187Y000944D02*
X005102Y000944D01*
X005241Y001240D02*
X005653Y001240D01*
X005572Y001338D02*
X005322Y001338D01*
X005363Y001437D02*
X005531Y001437D01*
X005520Y001535D02*
X005375Y001535D01*
X005375Y001634D02*
X005520Y001634D01*
X005457Y001590D02*
X005857Y001990D01*
X007537Y001990D01*
X007937Y001590D01*
X007947Y001550D01*
X008017Y001590D01*
X008257Y001830D01*
X008257Y003430D01*
X008017Y003670D01*
X007617Y003670D01*
X006017Y005270D01*
X005947Y005330D01*
X005897Y005377D02*
X005447Y005377D01*
X005447Y005475D02*
X005557Y005475D01*
X005557Y005380D02*
X005897Y005380D01*
X005897Y005280D01*
X005557Y005280D01*
X005557Y004870D01*
X005567Y004832D01*
X005587Y004798D01*
X005615Y004770D01*
X005649Y004750D01*
X005687Y004740D01*
X005897Y004740D01*
X005897Y005280D01*
X005997Y005280D01*
X005997Y004740D01*
X006207Y004740D01*
X006245Y004750D01*
X006279Y004770D01*
X006307Y004798D01*
X006327Y004832D01*
X006337Y004870D01*
X006337Y005280D01*
X005997Y005280D01*
X005997Y005380D01*
X005897Y005380D01*
X005897Y005920D01*
X005687Y005920D01*
X005649Y005910D01*
X005615Y005890D01*
X005587Y005862D01*
X005567Y005828D01*
X005557Y005790D01*
X005557Y005380D01*
X005557Y005278D02*
X005447Y005278D01*
X005447Y005180D02*
X005557Y005180D01*
X005557Y005081D02*
X005447Y005081D01*
X005447Y004983D02*
X005557Y004983D01*
X005557Y004884D02*
X005495Y004884D01*
X005593Y004786D02*
X005599Y004786D01*
X005692Y004687D02*
X008497Y004687D01*
X008497Y004589D02*
X005790Y004589D01*
X005889Y004490D02*
X008497Y004490D01*
X008497Y004392D02*
X005987Y004392D01*
X006086Y004293D02*
X008497Y004293D01*
X008497Y004195D02*
X006184Y004195D01*
X006283Y004096D02*
X008497Y004096D01*
X008497Y003998D02*
X006381Y003998D01*
X006480Y003899D02*
X008497Y003899D01*
X008497Y003801D02*
X006578Y003801D01*
X006677Y003702D02*
X008497Y003702D01*
X008497Y003604D02*
X008167Y003604D01*
X008263Y003505D02*
X008497Y003505D01*
X008497Y003407D02*
X008303Y003407D01*
X008317Y003308D02*
X008497Y003308D01*
X008497Y003210D02*
X008310Y003210D01*
X008269Y003111D02*
X008497Y003111D01*
X008497Y003013D02*
X008183Y003013D01*
X008497Y002914D02*
X007685Y002914D01*
X007683Y003013D02*
X007711Y003013D01*
X007786Y002816D02*
X008497Y002816D01*
X008497Y002717D02*
X007841Y002717D01*
X007875Y002619D02*
X008497Y002619D01*
X008497Y002520D02*
X007875Y002520D01*
X007857Y002422D02*
X008497Y002422D01*
X008497Y002323D02*
X007816Y002323D01*
X007726Y002225D02*
X008497Y002225D01*
X008497Y002126D02*
X007540Y002126D01*
X007354Y002126D02*
X006540Y002126D01*
X006532Y002123D02*
X006689Y002188D01*
X006809Y002308D01*
X006875Y002465D01*
X006875Y002635D01*
X006809Y002792D01*
X006689Y002912D01*
X006532Y002977D01*
X006362Y002977D01*
X006205Y002912D01*
X006085Y002792D01*
X006020Y002635D01*
X006020Y002465D01*
X006085Y002308D01*
X006205Y002188D01*
X006362Y002123D01*
X006532Y002123D01*
X006354Y002126D02*
X005540Y002126D01*
X005354Y002126D02*
X004540Y002126D01*
X004532Y002123D02*
X004689Y002188D01*
X004809Y002308D01*
X004875Y002465D01*
X004875Y002635D01*
X004809Y002792D01*
X004689Y002912D01*
X004532Y002977D01*
X004362Y002977D01*
X004205Y002912D01*
X004085Y002792D01*
X004020Y002635D01*
X004020Y002465D01*
X004085Y002308D01*
X004205Y002188D01*
X004362Y002123D01*
X004532Y002123D01*
X004354Y002126D02*
X003897Y002126D01*
X003897Y002028D02*
X008497Y002028D01*
X008497Y001929D02*
X008099Y001929D01*
X008243Y001831D02*
X008497Y001831D01*
X008497Y001732D02*
X008312Y001732D01*
X008346Y001634D02*
X008497Y001634D01*
X008496Y001535D02*
X007976Y001535D01*
X007976Y001437D02*
X007918Y001437D01*
X007918Y001338D02*
X007976Y001338D01*
X007976Y001240D02*
X007918Y001240D01*
X008213Y001240D02*
X008427Y001240D01*
X008459Y001338D02*
X008296Y001338D01*
X008339Y001437D02*
X008488Y001437D01*
X008377Y001141D02*
X007556Y001141D01*
X007381Y001043D02*
X008305Y001043D01*
X008207Y000944D02*
X007312Y000944D01*
X007312Y000846D02*
X008072Y000846D01*
X007976Y001634D02*
X007918Y001634D01*
X007918Y001732D02*
X007976Y001732D01*
X007976Y001831D02*
X007918Y001831D01*
X007918Y001929D02*
X007976Y001929D01*
X007795Y001929D02*
X007149Y001929D01*
X007271Y001831D02*
X007651Y001831D01*
X007582Y001732D02*
X007525Y001732D01*
X007389Y001732D02*
X007334Y001732D01*
X007457Y001430D02*
X006897Y000870D01*
X006866Y000870D01*
X006653Y001240D02*
X006241Y001240D01*
X006322Y001338D02*
X006572Y001338D01*
X006531Y001437D02*
X006363Y001437D01*
X006375Y001535D02*
X006520Y001535D01*
X006520Y001634D02*
X006375Y001634D01*
X006334Y001732D02*
X006560Y001732D01*
X006623Y001831D02*
X006271Y001831D01*
X006149Y001929D02*
X006745Y001929D01*
X006726Y002225D02*
X007168Y002225D01*
X007078Y002323D02*
X006816Y002323D01*
X006857Y002422D02*
X007038Y002422D01*
X007020Y002520D02*
X006875Y002520D01*
X006875Y002619D02*
X006997Y002619D01*
X006898Y002717D02*
X006841Y002717D01*
X006800Y002816D02*
X006786Y002816D01*
X006701Y002914D02*
X006685Y002914D01*
X006603Y003013D02*
X006183Y003013D01*
X006209Y002914D02*
X005685Y002914D01*
X005683Y003013D02*
X005711Y003013D01*
X005786Y002816D02*
X006108Y002816D01*
X006054Y002717D02*
X005841Y002717D01*
X005875Y002619D02*
X006020Y002619D01*
X006020Y002520D02*
X005875Y002520D01*
X005857Y002422D02*
X006038Y002422D01*
X006078Y002323D02*
X005816Y002323D01*
X005726Y002225D02*
X006168Y002225D01*
X005745Y001929D02*
X005149Y001929D01*
X005057Y001990D02*
X005457Y001590D01*
X005457Y000870D01*
X005528Y000870D01*
X005566Y000846D02*
X006421Y000846D01*
X006421Y000944D02*
X005953Y000944D01*
X005953Y001043D02*
X006421Y001043D01*
X006444Y001141D02*
X006077Y001141D01*
X005566Y001141D02*
X005489Y001141D01*
X005489Y001043D02*
X005566Y001043D01*
X005566Y000944D02*
X005489Y000944D01*
X005489Y000846D02*
X004322Y000846D01*
X004520Y001634D02*
X003897Y001634D01*
X003897Y001732D02*
X004560Y001732D01*
X004623Y001831D02*
X003897Y001831D01*
X003897Y001929D02*
X004745Y001929D01*
X004726Y002225D02*
X005168Y002225D01*
X005078Y002323D02*
X004816Y002323D01*
X004857Y002422D02*
X005038Y002422D01*
X005057Y002470D02*
X005057Y001990D01*
X005271Y001831D02*
X005623Y001831D01*
X005560Y001732D02*
X005334Y001732D01*
X005057Y002470D02*
X004257Y003270D01*
X004257Y005750D01*
X004197Y005755D01*
X004226Y005771D02*
X004627Y005771D01*
X004627Y005672D02*
X004505Y005672D01*
X004503Y005574D02*
X004627Y005574D01*
X004627Y005475D02*
X004443Y005475D01*
X004627Y005377D02*
X003897Y005377D01*
X003897Y005475D02*
X003951Y005475D01*
X003897Y005278D02*
X004627Y005278D01*
X004627Y005180D02*
X003897Y005180D01*
X003897Y005081D02*
X004627Y005081D01*
X004627Y004983D02*
X003897Y004983D01*
X003897Y004884D02*
X004627Y004884D01*
X004661Y004786D02*
X003897Y004786D01*
X003897Y004687D02*
X004928Y004687D01*
X005027Y004589D02*
X003897Y004589D01*
X003897Y004490D02*
X005125Y004490D01*
X005224Y004392D02*
X003897Y004392D01*
X003897Y004293D02*
X005322Y004293D01*
X005421Y004195D02*
X003897Y004195D01*
X003897Y004096D02*
X005519Y004096D01*
X005618Y003998D02*
X003897Y003998D01*
X003897Y003899D02*
X005716Y003899D01*
X005815Y003801D02*
X003897Y003801D01*
X003897Y003702D02*
X005913Y003702D01*
X005727Y003604D02*
X005667Y003604D01*
X005227Y003604D02*
X003897Y003604D01*
X003897Y003505D02*
X005131Y003505D01*
X005091Y003407D02*
X003897Y003407D01*
X003897Y003308D02*
X005077Y003308D01*
X005084Y003210D02*
X003897Y003210D01*
X003897Y003111D02*
X005125Y003111D01*
X005211Y003013D02*
X003897Y003013D01*
X003897Y002914D02*
X004209Y002914D01*
X004108Y002816D02*
X003897Y002816D01*
X003897Y002717D02*
X004054Y002717D01*
X004020Y002619D02*
X003897Y002619D01*
X003897Y002520D02*
X004020Y002520D01*
X004038Y002422D02*
X003897Y002422D01*
X003897Y002323D02*
X004078Y002323D01*
X004168Y002225D02*
X003897Y002225D01*
X004685Y002914D02*
X005209Y002914D01*
X005108Y002816D02*
X004786Y002816D01*
X004841Y002717D02*
X005054Y002717D01*
X005020Y002619D02*
X004875Y002619D01*
X004875Y002520D02*
X005020Y002520D01*
X006269Y003111D02*
X006504Y003111D01*
X006406Y003210D02*
X006310Y003210D01*
X006775Y003604D02*
X007227Y003604D01*
X007131Y003505D02*
X006874Y003505D01*
X006972Y003407D02*
X007091Y003407D01*
X007077Y003308D02*
X007071Y003308D01*
X007667Y003604D02*
X007727Y003604D01*
X007233Y004786D02*
X008497Y004786D01*
X008497Y004884D02*
X007267Y004884D01*
X007267Y004983D02*
X008497Y004983D01*
X008497Y005081D02*
X007267Y005081D01*
X007267Y005180D02*
X008497Y005180D01*
X008497Y005278D02*
X007267Y005278D01*
X007267Y005377D02*
X008497Y005377D01*
X008497Y005475D02*
X007267Y005475D01*
X007267Y005574D02*
X008497Y005574D01*
X008497Y005672D02*
X007267Y005672D01*
X007267Y005771D02*
X008023Y005771D01*
X008171Y005771D02*
X008497Y005771D01*
X008497Y005869D02*
X008327Y005869D01*
X008385Y005968D02*
X008497Y005968D01*
X008497Y006066D02*
X008402Y006066D01*
X008337Y006550D02*
X008282Y006550D01*
X008337Y006550D02*
X008337Y007350D01*
X007617Y006550D02*
X007612Y006550D01*
X007617Y006550D02*
X008097Y006070D01*
X007809Y005968D02*
X007127Y005968D01*
X007127Y006066D02*
X007790Y006066D01*
X007867Y005869D02*
X007238Y005869D01*
X007246Y006362D02*
X007127Y006362D01*
X007127Y006460D02*
X007246Y006460D01*
X007246Y006559D02*
X007127Y006559D01*
X007127Y006657D02*
X007246Y006657D01*
X007246Y006756D02*
X007127Y006756D01*
X007127Y006854D02*
X007263Y006854D01*
X007397Y006953D02*
X007127Y006953D01*
X007127Y007051D02*
X007397Y007051D01*
X007397Y007150D02*
X007127Y007150D01*
X007127Y007248D02*
X007397Y007248D01*
X007397Y007347D02*
X007127Y007347D01*
X007127Y007445D02*
X007397Y007445D01*
X007397Y007544D02*
X007127Y007544D01*
X007127Y007642D02*
X007397Y007642D01*
X007397Y007741D02*
X007127Y007741D01*
X007127Y007839D02*
X007397Y007839D01*
X007397Y007938D02*
X007127Y007938D01*
X007127Y008036D02*
X007397Y008036D01*
X007397Y008135D02*
X007127Y008135D01*
X007127Y008233D02*
X007397Y008233D01*
X007397Y008332D02*
X007127Y008332D01*
X007127Y008430D02*
X007397Y008430D01*
X007397Y008529D02*
X007092Y008529D01*
X007002Y008627D02*
X007189Y008627D01*
X007107Y008726D02*
X006903Y008726D01*
X006805Y008824D02*
X007072Y008824D01*
X007072Y008923D02*
X006821Y008923D01*
X006870Y009021D02*
X007109Y009021D01*
X007157Y009120D02*
X006882Y009120D01*
X006577Y009110D02*
X006577Y009430D01*
X006257Y009750D01*
X006197Y009800D01*
X007197Y009800D02*
X007217Y009750D01*
X007377Y009590D01*
X007377Y008870D01*
X007617Y008710D02*
X008177Y009270D01*
X008177Y009750D01*
X008197Y009800D01*
X007617Y008710D02*
X007617Y006550D01*
X006587Y006559D02*
X005307Y006559D01*
X005307Y006657D02*
X006587Y006657D01*
X006587Y006756D02*
X005307Y006756D01*
X005307Y006854D02*
X006587Y006854D01*
X006587Y006953D02*
X005307Y006953D01*
X005307Y007051D02*
X006587Y007051D01*
X006587Y007150D02*
X005307Y007150D01*
X005307Y006460D02*
X006587Y006460D01*
X006587Y006362D02*
X005307Y006362D01*
X005307Y006263D02*
X006587Y006263D01*
X006587Y006165D02*
X005307Y006165D01*
X005307Y006066D02*
X006587Y006066D01*
X006587Y005968D02*
X005307Y005968D01*
X005418Y005869D02*
X005594Y005869D01*
X005557Y005771D02*
X005447Y005771D01*
X005447Y005672D02*
X005557Y005672D01*
X005557Y005574D02*
X005447Y005574D01*
X005897Y005574D02*
X005997Y005574D01*
X005997Y005672D02*
X005897Y005672D01*
X005897Y005771D02*
X005997Y005771D01*
X005997Y005869D02*
X005897Y005869D01*
X005997Y005920D02*
X006207Y005920D01*
X006245Y005910D01*
X006279Y005890D01*
X006307Y005862D01*
X006327Y005828D01*
X006337Y005790D01*
X006337Y005380D01*
X005997Y005380D01*
X005997Y005920D01*
X005997Y005475D02*
X005897Y005475D01*
X005997Y005377D02*
X006447Y005377D01*
X006447Y005475D02*
X006337Y005475D01*
X006337Y005574D02*
X006447Y005574D01*
X006447Y005672D02*
X006337Y005672D01*
X006337Y005771D02*
X006447Y005771D01*
X006476Y005869D02*
X006300Y005869D01*
X006337Y005278D02*
X006447Y005278D01*
X006447Y005180D02*
X006337Y005180D01*
X006337Y005081D02*
X006447Y005081D01*
X006447Y004983D02*
X006337Y004983D01*
X006337Y004884D02*
X006447Y004884D01*
X006481Y004786D02*
X006295Y004786D01*
X005997Y004786D02*
X005897Y004786D01*
X005897Y004884D02*
X005997Y004884D01*
X005997Y004983D02*
X005897Y004983D01*
X005897Y005081D02*
X005997Y005081D01*
X005997Y005180D02*
X005897Y005180D01*
X005897Y005278D02*
X005997Y005278D01*
X004767Y005968D02*
X004495Y005968D01*
X004505Y005869D02*
X004656Y005869D01*
X004767Y006066D02*
X004473Y006066D01*
X004525Y006165D02*
X004767Y006165D01*
X004767Y006263D02*
X004525Y006263D01*
X004525Y006362D02*
X004767Y006362D01*
X004767Y006460D02*
X004525Y006460D01*
X004525Y006559D02*
X004767Y006559D01*
X004767Y006657D02*
X004543Y006657D01*
X004584Y006756D02*
X004767Y006756D01*
X004767Y006854D02*
X004584Y006854D01*
X004584Y006953D02*
X004767Y006953D01*
X004767Y007051D02*
X004584Y007051D01*
X004584Y007150D02*
X004767Y007150D01*
X004767Y007248D02*
X004568Y007248D01*
X004563Y007347D02*
X004767Y007347D01*
X004767Y007445D02*
X004584Y007445D01*
X004584Y007544D02*
X004767Y007544D01*
X004767Y007642D02*
X004584Y007642D01*
X004584Y007741D02*
X004767Y007741D01*
X004767Y007839D02*
X004584Y007839D01*
X004548Y007938D02*
X004767Y007938D01*
X004767Y008036D02*
X004397Y008036D01*
X004397Y008135D02*
X004767Y008135D01*
X004767Y008233D02*
X004397Y008233D01*
X004177Y008550D02*
X004017Y008710D01*
X004177Y008550D02*
X004177Y007670D01*
X004197Y007635D01*
X004197Y006965D02*
X004257Y006950D01*
X004257Y006390D01*
X004197Y006345D01*
X004168Y005672D02*
X004226Y005672D01*
X004226Y005574D02*
X004168Y005574D01*
X004168Y005475D02*
X004226Y005475D01*
X004127Y008995D02*
X004078Y009015D01*
X003956Y009015D01*
X003897Y008990D01*
X003897Y009158D01*
X003927Y009150D01*
X004147Y009150D01*
X004147Y009750D01*
X004247Y009750D01*
X004247Y009150D01*
X004325Y009150D01*
X004237Y009114D01*
X004133Y009010D01*
X004127Y008995D01*
X004145Y009021D02*
X003897Y009021D01*
X003897Y009120D02*
X004252Y009120D01*
X004247Y009218D02*
X004147Y009218D01*
X004147Y009317D02*
X004247Y009317D01*
X004247Y009415D02*
X004147Y009415D01*
X004147Y009514D02*
X004247Y009514D01*
X004247Y009612D02*
X004147Y009612D01*
X004147Y009711D02*
X004247Y009711D01*
X004247Y009750D02*
X004247Y009850D01*
X004597Y009850D01*
X004597Y010320D01*
X004589Y010350D01*
X004777Y010350D01*
X004777Y009230D01*
X004847Y009159D01*
X004737Y009114D01*
X004697Y009073D01*
X004657Y009114D01*
X004521Y009170D01*
X004539Y009180D01*
X004567Y009208D01*
X004587Y009242D01*
X004597Y009280D01*
X004597Y009750D01*
X004247Y009750D01*
X004247Y009809D02*
X004777Y009809D01*
X004777Y009711D02*
X004597Y009711D01*
X004597Y009612D02*
X004777Y009612D01*
X004777Y009514D02*
X004597Y009514D01*
X004597Y009415D02*
X004777Y009415D01*
X004777Y009317D02*
X004597Y009317D01*
X004573Y009218D02*
X004789Y009218D01*
X004752Y009120D02*
X004643Y009120D01*
X004657Y009830D02*
X004257Y009830D01*
X004197Y009800D01*
X004597Y009908D02*
X004777Y009908D01*
X004777Y010006D02*
X004597Y010006D01*
X004597Y010105D02*
X004777Y010105D01*
X004777Y010203D02*
X004597Y010203D01*
X004597Y010302D02*
X004777Y010302D01*
D20*
X004657Y009830D03*
X004447Y008800D03*
X004017Y008710D03*
X004947Y008800D03*
X005697Y008650D03*
X006577Y009110D03*
X007377Y008870D03*
X008337Y007350D03*
X008097Y006070D03*
X007947Y003300D03*
X007447Y003300D03*
X007457Y001430D03*
X005947Y003300D03*
X005447Y003300D03*
D21*
X005037Y004960D02*
X007447Y002550D01*
X006857Y005330D02*
X006857Y008390D01*
X006197Y009050D01*
X005697Y009050D01*
X005197Y009550D01*
X005197Y009800D01*
X005397Y008650D02*
X005697Y008650D01*
X005397Y008650D02*
X005037Y008290D01*
X005037Y005330D01*
X005037Y004960D01*
M02*
