G75*
%MOIN*%
%OFA0B0*%
%FSLAX24Y24*%
%IPPOS*%
%LPD*%
%AMOC8*
5,1,8,0,0,1.08239X$1,22.5*
%
%ADD10C,0.0000*%
D10*
X001267Y001250D02*
X001267Y009750D01*
X001269Y009794D01*
X001275Y009837D01*
X001284Y009879D01*
X001297Y009921D01*
X001314Y009961D01*
X001334Y010000D01*
X001357Y010037D01*
X001384Y010071D01*
X001413Y010104D01*
X001446Y010133D01*
X001480Y010160D01*
X001517Y010183D01*
X001556Y010203D01*
X001596Y010220D01*
X001638Y010233D01*
X001680Y010242D01*
X001723Y010248D01*
X001767Y010250D01*
X005767Y010250D01*
X005811Y010248D01*
X005854Y010242D01*
X005896Y010233D01*
X005938Y010220D01*
X005978Y010203D01*
X006017Y010183D01*
X006054Y010160D01*
X006088Y010133D01*
X006121Y010104D01*
X006150Y010071D01*
X006177Y010037D01*
X006200Y010000D01*
X006220Y009961D01*
X006237Y009921D01*
X006250Y009879D01*
X006259Y009837D01*
X006265Y009794D01*
X006267Y009750D01*
X006267Y001250D01*
X006265Y001190D01*
X006260Y001129D01*
X006251Y001070D01*
X006238Y001011D01*
X006222Y000952D01*
X006202Y000895D01*
X006179Y000840D01*
X006152Y000785D01*
X006123Y000733D01*
X006090Y000682D01*
X006054Y000633D01*
X006016Y000587D01*
X005974Y000543D01*
X005930Y000501D01*
X005884Y000463D01*
X005835Y000427D01*
X005784Y000394D01*
X005732Y000365D01*
X005677Y000338D01*
X005622Y000315D01*
X005565Y000295D01*
X005506Y000279D01*
X005447Y000266D01*
X005388Y000257D01*
X005327Y000252D01*
X005267Y000250D01*
X002267Y000250D01*
X002207Y000252D01*
X002146Y000257D01*
X002087Y000266D01*
X002028Y000279D01*
X001969Y000295D01*
X001912Y000315D01*
X001857Y000338D01*
X001802Y000365D01*
X001750Y000394D01*
X001699Y000427D01*
X001650Y000463D01*
X001604Y000501D01*
X001560Y000543D01*
X001518Y000587D01*
X001480Y000633D01*
X001444Y000682D01*
X001411Y000733D01*
X001382Y000785D01*
X001355Y000840D01*
X001332Y000895D01*
X001312Y000952D01*
X001296Y001011D01*
X001283Y001070D01*
X001274Y001129D01*
X001269Y001190D01*
X001267Y001250D01*
M02*
