G75*
%MOIN*%
%OFA0B0*%
%FSLAX24Y24*%
%IPPOS*%
%LPD*%
%AMOC8*
5,1,8,0,0,1.08239X$1,22.5*
%
%ADD10C,0.0515*%
%ADD11R,0.0500X0.1000*%
%ADD12R,0.0480X0.0880*%
%ADD13R,0.1417X0.0866*%
%ADD14R,0.0551X0.0354*%
%ADD15C,0.0200*%
%ADD16C,0.0100*%
%ADD17C,0.0270*%
D10*
X002517Y006500D03*
X003017Y007500D03*
X003517Y006500D03*
X004017Y007500D03*
X004517Y006500D03*
X005017Y007500D03*
X005517Y006500D03*
X002017Y007500D03*
D11*
X001767Y009500D03*
X002767Y009500D03*
X003767Y009500D03*
X004767Y009500D03*
X005767Y009500D03*
D12*
X004677Y005470D03*
X003767Y005470D03*
X002857Y005470D03*
D13*
X003767Y003030D03*
D14*
X004436Y000500D03*
X003097Y000500D03*
D15*
X003187Y004750D02*
X002517Y004750D01*
X002017Y005250D01*
X002017Y007500D01*
X001767Y007750D01*
X001767Y009500D01*
X003517Y007750D02*
X003517Y007250D01*
X003017Y006750D01*
X003017Y006490D01*
X003017Y006250D01*
X002857Y006090D01*
X002857Y005470D01*
X003187Y004750D02*
X003267Y004750D01*
X003767Y005250D01*
X003767Y005470D01*
X004017Y006250D02*
X004677Y005590D01*
X004677Y005470D01*
X004017Y006250D02*
X004017Y006750D01*
X003767Y007000D01*
X003517Y007750D02*
X003767Y008000D01*
X003767Y009500D01*
D16*
X001477Y001125D02*
X001554Y000887D01*
X001701Y000684D01*
X001903Y000537D01*
X002142Y000460D01*
X002267Y000450D01*
X002652Y000450D01*
X002652Y000748D01*
X002751Y000847D01*
X003443Y000847D01*
X003501Y000790D01*
X003695Y000790D01*
X003734Y000829D01*
X003846Y000875D01*
X003967Y000875D01*
X004079Y000829D01*
X004095Y000813D01*
X004102Y000817D01*
X004141Y000827D01*
X004397Y000827D01*
X004397Y000539D01*
X004475Y000539D01*
X004475Y000827D01*
X004731Y000827D01*
X004769Y000817D01*
X004804Y000797D01*
X004832Y000769D01*
X004851Y000735D01*
X004862Y000697D01*
X004862Y000539D01*
X004475Y000539D01*
X004475Y000461D01*
X004862Y000461D01*
X004862Y000450D01*
X005267Y000450D01*
X005392Y000460D01*
X005630Y000537D01*
X005832Y000684D01*
X005979Y000887D01*
X006057Y001125D01*
X006067Y001250D01*
X006067Y003459D01*
X005332Y002724D01*
X005332Y002669D01*
X005285Y002557D01*
X005199Y002471D01*
X005087Y002425D01*
X004966Y002425D01*
X004854Y002471D01*
X004768Y002557D01*
X004722Y002669D01*
X004722Y002791D01*
X004768Y002903D01*
X004854Y002989D01*
X004966Y003035D01*
X005021Y003035D01*
X005321Y003336D01*
X005247Y003305D01*
X005126Y003305D01*
X005014Y003351D01*
X004987Y003379D01*
X004959Y003351D01*
X004847Y003305D01*
X004726Y003305D01*
X004645Y003338D01*
X004645Y002526D01*
X004546Y002427D01*
X003321Y002427D01*
X003678Y002070D01*
X004755Y002070D01*
X004794Y002109D01*
X004906Y002155D01*
X005027Y002155D01*
X005139Y002109D01*
X005225Y002023D01*
X006067Y002023D01*
X006067Y001925D02*
X005266Y001925D01*
X005272Y001911D02*
X005225Y002023D01*
X005272Y001911D02*
X005272Y001789D01*
X005225Y001677D01*
X005139Y001591D01*
X005027Y001545D01*
X004906Y001545D01*
X004794Y001591D01*
X004755Y001630D01*
X003496Y001630D01*
X002856Y002270D01*
X002727Y002399D01*
X002727Y003941D01*
X002891Y004105D01*
X002806Y004105D01*
X002694Y004151D01*
X002655Y004190D01*
X002456Y004190D01*
X002327Y004319D01*
X002319Y004311D01*
X002207Y004265D01*
X002086Y004265D01*
X001974Y004311D01*
X001888Y004397D01*
X001842Y004509D01*
X001842Y004631D01*
X001888Y004743D01*
X001974Y004829D01*
X002086Y004875D01*
X002207Y004875D01*
X002319Y004829D01*
X002358Y004790D01*
X002478Y004790D01*
X002638Y004630D01*
X002655Y004630D01*
X002694Y004669D01*
X002806Y004715D01*
X002927Y004715D01*
X003039Y004669D01*
X003125Y004583D01*
X003172Y004471D01*
X003172Y004386D01*
X003442Y004656D01*
X003442Y004711D01*
X003488Y004823D01*
X003545Y004880D01*
X003507Y004880D01*
X003469Y004890D01*
X003435Y004910D01*
X003407Y004938D01*
X003387Y004972D01*
X003377Y005010D01*
X003377Y005420D01*
X003717Y005420D01*
X003717Y004955D01*
X003807Y004955D01*
X003817Y004951D01*
X003817Y005420D01*
X003817Y005520D01*
X004157Y005520D01*
X004157Y005728D01*
X004267Y005618D01*
X004267Y004960D01*
X004366Y004860D01*
X004645Y004860D01*
X004608Y004823D01*
X004562Y004711D01*
X004562Y004589D01*
X004608Y004477D01*
X004694Y004391D01*
X004696Y004391D01*
X004301Y003995D01*
X004246Y003995D01*
X004134Y003949D01*
X004048Y003863D01*
X004002Y003751D01*
X004002Y003633D01*
X003167Y003633D01*
X003167Y003759D01*
X003753Y004345D01*
X003807Y004345D01*
X003919Y004391D01*
X004005Y004477D01*
X004052Y004589D01*
X004052Y004711D01*
X004005Y004823D01*
X003948Y004880D01*
X004026Y004880D01*
X004065Y004890D01*
X004099Y004910D01*
X004127Y004938D01*
X004146Y004972D01*
X004157Y005010D01*
X004157Y005420D01*
X003817Y005420D01*
X003717Y005420D01*
X003717Y005520D01*
X003717Y006060D01*
X003507Y006060D01*
X003469Y006050D01*
X003435Y006030D01*
X003407Y006002D01*
X003387Y005968D01*
X003377Y005930D01*
X003377Y005520D01*
X003717Y005520D01*
X003817Y005520D01*
X003817Y006060D01*
X003825Y006060D01*
X003788Y006097D01*
X003767Y006146D01*
X003759Y006138D01*
X003602Y006073D01*
X003432Y006073D01*
X003275Y006138D01*
X003266Y006146D01*
X003246Y006097D01*
X003198Y006049D01*
X003267Y005980D01*
X003267Y004960D01*
X003167Y004860D01*
X002546Y004860D01*
X002447Y004960D01*
X002447Y005980D01*
X002539Y006073D01*
X002432Y006073D01*
X002275Y006138D01*
X002154Y006258D01*
X002089Y006415D01*
X002089Y006585D01*
X002154Y006742D01*
X002275Y006862D01*
X002432Y006927D01*
X002512Y006927D01*
X002454Y006951D01*
X002368Y007037D01*
X002322Y007149D01*
X002322Y007229D01*
X002282Y007189D01*
X002230Y007151D01*
X002173Y007122D01*
X002112Y007103D01*
X002049Y007093D01*
X002045Y007093D01*
X002045Y007471D01*
X001988Y007471D01*
X001988Y007093D01*
X001985Y007093D01*
X001921Y007103D01*
X001860Y007122D01*
X001803Y007151D01*
X001751Y007189D01*
X001706Y007235D01*
X001668Y007286D01*
X001639Y007344D01*
X001619Y007405D01*
X001609Y007468D01*
X001609Y007471D01*
X001988Y007471D01*
X001988Y007529D01*
X001988Y007907D01*
X001985Y007907D01*
X001921Y007897D01*
X001860Y007878D01*
X001803Y007849D01*
X001751Y007811D01*
X001706Y007765D01*
X001668Y007714D01*
X001639Y007656D01*
X001619Y007595D01*
X001609Y007532D01*
X001609Y007529D01*
X001988Y007529D01*
X002045Y007529D01*
X002045Y007907D01*
X002049Y007907D01*
X002112Y007897D01*
X002173Y007878D01*
X002230Y007849D01*
X002282Y007811D01*
X002327Y007765D01*
X002365Y007714D01*
X002394Y007656D01*
X002407Y007618D01*
X002407Y008870D01*
X002347Y008930D01*
X002347Y010050D01*
X002159Y010050D01*
X002167Y010020D01*
X002167Y009550D01*
X001817Y009550D01*
X001817Y009450D01*
X002167Y009450D01*
X002167Y008980D01*
X002156Y008942D01*
X002137Y008908D01*
X002109Y008880D01*
X002075Y008860D01*
X002036Y008850D01*
X001817Y008850D01*
X001817Y009450D01*
X001717Y009450D01*
X001717Y008850D01*
X001497Y008850D01*
X001467Y008858D01*
X001467Y001250D01*
X001477Y001125D01*
X001476Y001137D02*
X006058Y001137D01*
X006065Y001235D02*
X001468Y001235D01*
X001467Y001334D02*
X006067Y001334D01*
X006067Y001432D02*
X001467Y001432D01*
X001467Y001531D02*
X006067Y001531D01*
X006067Y001629D02*
X005177Y001629D01*
X005246Y001728D02*
X006067Y001728D01*
X006067Y001826D02*
X005272Y001826D01*
X005108Y002122D02*
X006067Y002122D01*
X006067Y002220D02*
X003528Y002220D01*
X003626Y002122D02*
X004825Y002122D01*
X004967Y001850D02*
X003587Y001850D01*
X002947Y002490D01*
X002947Y003850D01*
X003747Y004650D01*
X003948Y004880D02*
X004347Y004880D01*
X004267Y004978D02*
X004148Y004978D01*
X004157Y005077D02*
X004267Y005077D01*
X004267Y005175D02*
X004157Y005175D01*
X004157Y005274D02*
X004267Y005274D01*
X004267Y005372D02*
X004157Y005372D01*
X004267Y005471D02*
X003817Y005471D01*
X003817Y005569D02*
X003717Y005569D01*
X003717Y005471D02*
X003267Y005471D01*
X003267Y005569D02*
X003377Y005569D01*
X003377Y005668D02*
X003267Y005668D01*
X003267Y005766D02*
X003377Y005766D01*
X003377Y005865D02*
X003267Y005865D01*
X003267Y005963D02*
X003386Y005963D01*
X003210Y006062D02*
X003823Y006062D01*
X003817Y005963D02*
X003717Y005963D01*
X003717Y005865D02*
X003817Y005865D01*
X003817Y005766D02*
X003717Y005766D01*
X003717Y005668D02*
X003817Y005668D01*
X003817Y005372D02*
X003717Y005372D01*
X003717Y005274D02*
X003817Y005274D01*
X003817Y005175D02*
X003717Y005175D01*
X003717Y005077D02*
X003817Y005077D01*
X003817Y004978D02*
X003717Y004978D01*
X003545Y004880D02*
X003187Y004880D01*
X003267Y004978D02*
X003385Y004978D01*
X003377Y005077D02*
X003267Y005077D01*
X003267Y005175D02*
X003377Y005175D01*
X003377Y005274D02*
X003267Y005274D01*
X003267Y005372D02*
X003377Y005372D01*
X003471Y004781D02*
X002487Y004781D01*
X002527Y004880D02*
X001467Y004880D01*
X001467Y004978D02*
X002447Y004978D01*
X002447Y005077D02*
X001467Y005077D01*
X001467Y005175D02*
X002447Y005175D01*
X002447Y005274D02*
X001467Y005274D01*
X001467Y005372D02*
X002447Y005372D01*
X002447Y005471D02*
X001467Y005471D01*
X001467Y005569D02*
X002447Y005569D01*
X002447Y005668D02*
X001467Y005668D01*
X001467Y005766D02*
X002447Y005766D01*
X002447Y005865D02*
X001467Y005865D01*
X001467Y005963D02*
X002447Y005963D01*
X002528Y006062D02*
X001467Y006062D01*
X001467Y006160D02*
X002252Y006160D01*
X002154Y006259D02*
X001467Y006259D01*
X001467Y006357D02*
X002113Y006357D01*
X002089Y006456D02*
X001467Y006456D01*
X001467Y006554D02*
X002089Y006554D01*
X002117Y006653D02*
X001467Y006653D01*
X001467Y006751D02*
X002163Y006751D01*
X002262Y006850D02*
X001467Y006850D01*
X001467Y006948D02*
X002462Y006948D01*
X002364Y007047D02*
X001467Y007047D01*
X001467Y007145D02*
X001816Y007145D01*
X001699Y007244D02*
X001467Y007244D01*
X001467Y007342D02*
X001640Y007342D01*
X001614Y007441D02*
X001467Y007441D01*
X001467Y007539D02*
X001610Y007539D01*
X001633Y007638D02*
X001467Y007638D01*
X001467Y007736D02*
X001684Y007736D01*
X001784Y007835D02*
X001467Y007835D01*
X001467Y007933D02*
X002407Y007933D01*
X002407Y007835D02*
X002249Y007835D01*
X002349Y007736D02*
X002407Y007736D01*
X002400Y007638D02*
X002407Y007638D01*
X002407Y008032D02*
X001467Y008032D01*
X001467Y008130D02*
X002407Y008130D01*
X002407Y008229D02*
X001467Y008229D01*
X001467Y008327D02*
X002407Y008327D01*
X002407Y008426D02*
X001467Y008426D01*
X001467Y008524D02*
X002407Y008524D01*
X002407Y008623D02*
X001467Y008623D01*
X001467Y008721D02*
X002407Y008721D01*
X002407Y008820D02*
X001467Y008820D01*
X001717Y008918D02*
X001817Y008918D01*
X001817Y009017D02*
X001717Y009017D01*
X001717Y009115D02*
X001817Y009115D01*
X001817Y009214D02*
X001717Y009214D01*
X001717Y009312D02*
X001817Y009312D01*
X001817Y009411D02*
X001717Y009411D01*
X001817Y009509D02*
X002347Y009509D01*
X002347Y009411D02*
X002167Y009411D01*
X002167Y009312D02*
X002347Y009312D01*
X002347Y009214D02*
X002167Y009214D01*
X002167Y009115D02*
X002347Y009115D01*
X002347Y009017D02*
X002167Y009017D01*
X002143Y008918D02*
X002358Y008918D01*
X002627Y009370D02*
X002707Y009450D01*
X002767Y009500D01*
X002627Y009370D02*
X002627Y007210D01*
X002323Y007145D02*
X002218Y007145D01*
X002045Y007145D02*
X001988Y007145D01*
X001988Y007244D02*
X002045Y007244D01*
X002045Y007342D02*
X001988Y007342D01*
X001988Y007441D02*
X002045Y007441D01*
X002045Y007539D02*
X001988Y007539D01*
X001988Y007638D02*
X002045Y007638D01*
X002045Y007736D02*
X001988Y007736D01*
X001988Y007835D02*
X002045Y007835D01*
X002947Y007530D02*
X003017Y007500D01*
X002947Y007530D02*
X003347Y007930D01*
X003347Y008410D01*
X004087Y007570D02*
X004017Y007500D01*
X004087Y007570D02*
X004087Y008650D01*
X004627Y009370D02*
X004707Y009450D01*
X004767Y009500D01*
X004627Y009370D02*
X004627Y006970D01*
X004947Y006650D01*
X004947Y006250D01*
X005027Y006170D01*
X005027Y004970D01*
X004867Y004810D01*
X004867Y004650D01*
X004591Y004781D02*
X004023Y004781D01*
X004052Y004683D02*
X004562Y004683D01*
X004564Y004584D02*
X004049Y004584D01*
X004009Y004486D02*
X004605Y004486D01*
X004693Y004387D02*
X003909Y004387D01*
X003696Y004289D02*
X004594Y004289D01*
X004496Y004190D02*
X003598Y004190D01*
X003499Y004092D02*
X004397Y004092D01*
X004241Y003993D02*
X003401Y003993D01*
X003302Y003895D02*
X004080Y003895D01*
X004020Y003796D02*
X003204Y003796D01*
X003167Y003698D02*
X004002Y003698D01*
X004307Y003690D02*
X005187Y004570D01*
X005187Y006250D01*
X005107Y006330D01*
X005107Y006890D01*
X005027Y006970D01*
X005017Y007500D02*
X005027Y007530D01*
X005907Y006650D01*
X005907Y004810D01*
X005187Y004090D01*
X005187Y003610D01*
X005289Y003304D02*
X004645Y003304D01*
X004645Y003205D02*
X005191Y003205D01*
X005092Y003107D02*
X004645Y003107D01*
X004645Y003008D02*
X004901Y003008D01*
X004775Y002910D02*
X004645Y002910D01*
X004645Y002811D02*
X004730Y002811D01*
X004722Y002713D02*
X004645Y002713D01*
X004645Y002614D02*
X004745Y002614D01*
X004810Y002516D02*
X004634Y002516D01*
X005027Y002730D02*
X006067Y003770D01*
X006067Y007690D01*
X005347Y008410D01*
X005347Y008570D01*
X005027Y008490D02*
X005027Y008730D01*
X005747Y009450D01*
X005767Y009500D01*
X005027Y008490D02*
X005507Y008010D01*
X005507Y007530D01*
X005587Y006010D02*
X005587Y004730D01*
X004787Y003930D01*
X004787Y003610D01*
X005419Y002811D02*
X006067Y002811D01*
X006067Y002713D02*
X005332Y002713D01*
X005309Y002614D02*
X006067Y002614D01*
X006067Y002516D02*
X005244Y002516D01*
X005517Y002910D02*
X006067Y002910D01*
X006067Y003008D02*
X005616Y003008D01*
X005714Y003107D02*
X006067Y003107D01*
X006067Y003205D02*
X005813Y003205D01*
X005911Y003304D02*
X006067Y003304D01*
X006067Y003402D02*
X006010Y003402D01*
X006067Y002417D02*
X003331Y002417D01*
X003429Y002319D02*
X006067Y002319D01*
X006029Y001038D02*
X001505Y001038D01*
X001537Y000940D02*
X005997Y000940D01*
X005946Y000841D02*
X004049Y000841D01*
X003907Y000570D02*
X003107Y000570D01*
X003097Y000500D01*
X003450Y000841D02*
X003764Y000841D01*
X004387Y000810D02*
X004387Y000570D01*
X004436Y000500D01*
X004397Y000546D02*
X004475Y000546D01*
X004475Y000644D02*
X004397Y000644D01*
X004397Y000743D02*
X004475Y000743D01*
X004387Y000810D02*
X002787Y002410D01*
X002787Y003930D01*
X003187Y004330D01*
X003187Y004750D01*
X003124Y004584D02*
X003370Y004584D01*
X003442Y004683D02*
X003006Y004683D01*
X003166Y004486D02*
X003271Y004486D01*
X003173Y004387D02*
X003172Y004387D01*
X002867Y004410D02*
X002547Y004410D01*
X002387Y004570D01*
X002147Y004570D01*
X002264Y004289D02*
X002357Y004289D01*
X002456Y004190D02*
X001467Y004190D01*
X001467Y004092D02*
X002877Y004092D01*
X002779Y003993D02*
X001467Y003993D01*
X001467Y003895D02*
X002727Y003895D01*
X002727Y003796D02*
X001467Y003796D01*
X001467Y003698D02*
X002727Y003698D01*
X002727Y003599D02*
X001467Y003599D01*
X001467Y003501D02*
X002727Y003501D01*
X002727Y003402D02*
X001467Y003402D01*
X001467Y003304D02*
X002727Y003304D01*
X002727Y003205D02*
X001467Y003205D01*
X001467Y003107D02*
X002727Y003107D01*
X002727Y003008D02*
X001467Y003008D01*
X001467Y002910D02*
X002727Y002910D01*
X002727Y002811D02*
X001467Y002811D01*
X001467Y002713D02*
X002727Y002713D01*
X002727Y002614D02*
X001467Y002614D01*
X001467Y002516D02*
X002727Y002516D01*
X002727Y002417D02*
X001467Y002417D01*
X001467Y002319D02*
X002807Y002319D01*
X002906Y002220D02*
X001467Y002220D01*
X001467Y002122D02*
X003004Y002122D01*
X003103Y002023D02*
X001467Y002023D01*
X001467Y001925D02*
X003201Y001925D01*
X003300Y001826D02*
X001467Y001826D01*
X001467Y001728D02*
X003398Y001728D01*
X002745Y000841D02*
X001587Y000841D01*
X001659Y000743D02*
X002652Y000743D01*
X002652Y000644D02*
X001756Y000644D01*
X001892Y000546D02*
X002652Y000546D01*
X001467Y001629D02*
X004756Y001629D01*
X004847Y000743D02*
X005875Y000743D01*
X005777Y000644D02*
X004862Y000644D01*
X004862Y000546D02*
X005641Y000546D01*
X002728Y004683D02*
X002585Y004683D01*
X002029Y004289D02*
X001467Y004289D01*
X001467Y004387D02*
X001898Y004387D01*
X001852Y004486D02*
X001467Y004486D01*
X001467Y004584D02*
X001842Y004584D01*
X001863Y004683D02*
X001467Y004683D01*
X001467Y004781D02*
X001926Y004781D01*
X002517Y006500D02*
X002547Y006490D01*
X003017Y006490D01*
X004157Y005668D02*
X004217Y005668D01*
X004267Y005569D02*
X004157Y005569D01*
X002347Y009608D02*
X002167Y009608D01*
X002167Y009706D02*
X002347Y009706D01*
X002347Y009805D02*
X002167Y009805D01*
X002167Y009903D02*
X002347Y009903D01*
X002347Y010002D02*
X002167Y010002D01*
D17*
X003347Y008410D03*
X004087Y008650D03*
X005347Y008570D03*
X005507Y007530D03*
X005027Y006970D03*
X005587Y006010D03*
X004867Y004650D03*
X004787Y003610D03*
X005187Y003610D03*
X005027Y002730D03*
X004967Y001850D03*
X003907Y000570D03*
X004307Y003690D03*
X003747Y004650D03*
X002867Y004410D03*
X002147Y004570D03*
X003767Y007000D03*
X002627Y007210D03*
M02*
