G75*
%MOIN*%
%OFA0B0*%
%FSLAX24Y24*%
%IPPOS*%
%LPD*%
%AMOC8*
5,1,8,0,0,1.08239X$1,22.5*
%
%ADD10C,0.0050*%
%ADD11C,0.0080*%
%ADD12R,0.1000X0.1500*%
%ADD13C,0.0030*%
%ADD14C,0.0070*%
%ADD15C,0.0040*%
D10*
X002767Y001275D02*
X002692Y001350D01*
X002767Y001275D02*
X002917Y001275D01*
X002992Y001350D01*
X002992Y001425D01*
X002917Y001500D01*
X002767Y001500D01*
X002692Y001575D01*
X002692Y001650D01*
X002767Y001725D01*
X002917Y001725D01*
X002992Y001650D01*
X003152Y001725D02*
X003452Y001725D01*
X003302Y001725D02*
X003302Y001275D01*
X003612Y001275D02*
X003612Y001575D01*
X003763Y001725D01*
X003913Y001575D01*
X003913Y001275D01*
X004073Y001275D02*
X004373Y001275D01*
X004533Y001275D02*
X004833Y001275D01*
X004533Y001275D02*
X004533Y001725D01*
X004267Y002000D02*
X003267Y002000D01*
X003267Y002500D01*
X004267Y002500D01*
X004267Y002000D01*
X004073Y001725D02*
X004073Y001275D01*
X003913Y001500D02*
X003612Y001500D01*
X003767Y002150D02*
X003667Y002250D01*
X003767Y002350D01*
X003867Y002250D02*
X003667Y002250D01*
X003530Y000815D02*
X003294Y000815D01*
X003284Y000657D01*
X004249Y000657D01*
X004249Y000343D01*
X003284Y000343D01*
X003284Y000657D01*
X003530Y000815D02*
X003609Y000756D01*
X003924Y000756D01*
X004003Y000815D01*
X004239Y000815D01*
X004249Y000657D01*
X003845Y000500D02*
X003767Y000421D01*
X003688Y000500D01*
X003767Y000579D02*
X003767Y000421D01*
D11*
X002097Y003484D02*
X005476Y003484D01*
X005476Y003483D02*
X005496Y003488D01*
X005515Y003496D01*
X005533Y003507D01*
X005549Y003520D01*
X005562Y003536D01*
X005573Y003553D01*
X005581Y003572D01*
X005586Y003592D01*
X005588Y003613D01*
X005587Y003634D01*
X005587Y004866D01*
X005585Y004889D01*
X005580Y004912D01*
X005571Y004934D01*
X005558Y004954D01*
X005543Y004972D01*
X005525Y004987D01*
X005505Y005000D01*
X005483Y005009D01*
X005460Y005014D01*
X005437Y005016D01*
X002097Y005016D01*
X002096Y005017D02*
X002072Y005012D01*
X002049Y005004D01*
X002028Y004993D01*
X002008Y004979D01*
X001990Y004962D01*
X001975Y004943D01*
X001962Y004922D01*
X001953Y004900D01*
X001947Y004876D01*
X001945Y004852D01*
X001946Y004827D01*
X001947Y004822D02*
X001947Y004490D01*
X001967Y004490D02*
X001997Y004488D01*
X002027Y004483D01*
X002056Y004474D01*
X002083Y004461D01*
X002109Y004446D01*
X002133Y004427D01*
X002154Y004406D01*
X002173Y004382D01*
X002188Y004356D01*
X002201Y004329D01*
X002210Y004300D01*
X002215Y004270D01*
X002217Y004240D01*
X002215Y004210D01*
X002210Y004180D01*
X002201Y004151D01*
X002188Y004124D01*
X002173Y004098D01*
X002154Y004074D01*
X002133Y004053D01*
X002109Y004034D01*
X002083Y004019D01*
X002056Y004006D01*
X002027Y003997D01*
X001997Y003992D01*
X001967Y003990D01*
X001947Y003990D02*
X001947Y003594D01*
X001946Y003594D02*
X001951Y003574D01*
X001959Y003555D01*
X001970Y003537D01*
X001983Y003521D01*
X001999Y003508D01*
X002016Y003497D01*
X002035Y003489D01*
X002055Y003484D01*
X002076Y003482D01*
X002097Y003483D01*
X001892Y008000D02*
X001642Y008000D01*
X001517Y008250D02*
X002017Y008250D01*
X002142Y008500D02*
X001767Y008500D01*
X001392Y008500D01*
X001767Y008500D02*
X001767Y008750D01*
X004267Y008000D02*
X004267Y010250D01*
X005267Y010250D02*
X005267Y009000D01*
D12*
X001767Y009500D03*
D13*
X004621Y008896D02*
X004621Y008799D01*
X004670Y008751D01*
X004863Y008751D01*
X004912Y008799D01*
X004912Y008896D01*
X004863Y008944D01*
X004670Y008944D01*
X004621Y008896D01*
X004670Y008650D02*
X004621Y008601D01*
X004621Y008504D01*
X004670Y008456D01*
X004718Y008456D01*
X004767Y008504D01*
X004767Y008601D01*
X004815Y008650D01*
X004863Y008650D01*
X004912Y008601D01*
X004912Y008504D01*
X004863Y008456D01*
X004912Y008356D02*
X004912Y008260D01*
X004912Y008308D02*
X004621Y008308D01*
X004621Y008260D02*
X004621Y008356D01*
X004621Y008158D02*
X004912Y008158D01*
X004912Y007965D02*
X004621Y007965D01*
X004718Y008062D01*
X004621Y008158D01*
X005621Y008165D02*
X005621Y008310D01*
X005670Y008358D01*
X005767Y008358D01*
X005815Y008310D01*
X005815Y008165D01*
X005912Y008165D02*
X005621Y008165D01*
X005815Y008262D02*
X005912Y008358D01*
X005863Y008460D02*
X005912Y008508D01*
X005912Y008605D01*
X005863Y008653D01*
X005815Y008653D01*
X005767Y008605D01*
X005767Y008508D01*
X005718Y008460D01*
X005670Y008460D01*
X005621Y008508D01*
X005621Y008605D01*
X005670Y008653D01*
X005621Y008754D02*
X005621Y008948D01*
X005621Y008851D02*
X005912Y008851D01*
D14*
X003972Y008810D02*
X003867Y008916D01*
X003657Y008916D01*
X003552Y008810D01*
X003552Y008705D01*
X003657Y008600D01*
X003867Y008600D01*
X003972Y008495D01*
X003972Y008390D01*
X003867Y008285D01*
X003657Y008285D01*
X003552Y008390D01*
X002972Y008600D02*
X002552Y008600D01*
X002762Y008810D02*
X002762Y008390D01*
D15*
X002690Y004480D02*
X002690Y004020D01*
X002537Y004020D02*
X002844Y004020D01*
X002997Y004250D02*
X003304Y004250D01*
X003457Y004327D02*
X003611Y004480D01*
X003611Y004020D01*
X003764Y004020D02*
X003457Y004020D01*
X003227Y004020D02*
X003227Y004480D01*
X002997Y004250D01*
X002690Y004480D02*
X002537Y004327D01*
X003918Y004404D02*
X003918Y004097D01*
X004225Y004404D01*
X004225Y004097D01*
X004148Y004020D01*
X003995Y004020D01*
X003918Y004097D01*
X003918Y004404D02*
X003995Y004480D01*
X004148Y004480D01*
X004225Y004404D01*
X004378Y004404D02*
X004455Y004480D01*
X004608Y004480D01*
X004685Y004404D01*
X004685Y004327D01*
X004378Y004020D01*
X004685Y004020D01*
X004839Y004097D02*
X004915Y004020D01*
X005069Y004020D01*
X005146Y004097D01*
X005146Y004173D01*
X005069Y004250D01*
X004992Y004250D01*
X005069Y004250D02*
X005146Y004327D01*
X005146Y004404D01*
X005069Y004480D01*
X004915Y004480D01*
X004839Y004404D01*
M02*
