G75*
%MOIN*%
%OFA0B0*%
%FSLAX24Y24*%
%IPPOS*%
%LPD*%
%AMOC8*
5,1,8,0,0,1.08239X$1,22.5*
%
%ADD10C,0.0515*%
%ADD11R,0.0236X0.0866*%
%ADD12R,0.0500X0.1000*%
%ADD13C,0.0100*%
%ADD14C,0.0270*%
%ADD15C,0.0200*%
D10*
X004447Y002550D03*
X004947Y001550D03*
X005447Y002550D03*
X005947Y001550D03*
X006447Y002550D03*
X006947Y001550D03*
X007447Y002550D03*
X007947Y001550D03*
D11*
X007947Y004081D03*
X007447Y004081D03*
X006947Y004081D03*
X006447Y004081D03*
X005947Y004081D03*
X005447Y004081D03*
X004947Y004081D03*
X004447Y004081D03*
X003947Y004081D03*
X003947Y008019D03*
X004447Y008019D03*
X004947Y008019D03*
X005447Y008019D03*
X005947Y008019D03*
X006447Y008019D03*
X006947Y008019D03*
X007447Y008019D03*
X007947Y008019D03*
X008447Y008019D03*
X008447Y004081D03*
D12*
X008197Y009800D03*
X007197Y009800D03*
X006197Y009800D03*
X005197Y009800D03*
X004197Y009800D03*
D13*
X003897Y001550D02*
X003907Y001425D01*
X003984Y001187D01*
X004131Y000984D01*
X004334Y000837D01*
X004572Y000760D01*
X004697Y000750D01*
X007697Y000750D01*
X007822Y000760D01*
X008060Y000837D01*
X008263Y000984D01*
X008410Y001187D01*
X008487Y001425D01*
X008497Y001550D01*
X008497Y003478D01*
X008259Y003478D01*
X008197Y003540D01*
X008168Y003511D01*
X008206Y003473D01*
X008252Y003361D01*
X008252Y003239D01*
X008206Y003127D01*
X008120Y003041D01*
X008077Y003024D01*
X008077Y002299D01*
X007948Y002170D01*
X007677Y001899D01*
X007677Y001856D01*
X007682Y001861D01*
X007733Y001899D01*
X007791Y001928D01*
X007852Y001947D01*
X007915Y001957D01*
X007918Y001957D01*
X007918Y001579D01*
X007976Y001579D01*
X007976Y001957D01*
X007979Y001957D01*
X008042Y001947D01*
X008103Y001928D01*
X008161Y001899D01*
X008213Y001861D01*
X008258Y001815D01*
X008296Y001764D01*
X008325Y001706D01*
X008344Y001645D01*
X008355Y001582D01*
X008355Y001579D01*
X007976Y001579D01*
X007976Y001521D01*
X008355Y001521D01*
X008355Y001518D01*
X008344Y001455D01*
X008325Y001394D01*
X008296Y001336D01*
X008258Y001285D01*
X008213Y001239D01*
X008161Y001201D01*
X008103Y001172D01*
X008042Y001153D01*
X007979Y001143D01*
X007976Y001143D01*
X007976Y001521D01*
X007918Y001521D01*
X007918Y001143D01*
X007915Y001143D01*
X007852Y001153D01*
X007791Y001172D01*
X007733Y001201D01*
X007691Y001232D01*
X007630Y001171D01*
X007518Y001125D01*
X007396Y001125D01*
X007284Y001171D01*
X007229Y001227D01*
X007189Y001188D01*
X007032Y001123D01*
X006862Y001123D01*
X006705Y001188D01*
X006585Y001308D01*
X006520Y001465D01*
X006520Y001635D01*
X006585Y001792D01*
X006705Y001912D01*
X006727Y001922D01*
X006727Y002225D01*
X006689Y002188D01*
X006532Y002123D01*
X006362Y002123D01*
X006205Y002188D01*
X006157Y002235D01*
X006157Y001926D01*
X006189Y001912D01*
X006309Y001792D01*
X006375Y001635D01*
X006375Y001465D01*
X006309Y001308D01*
X006189Y001188D01*
X006032Y001123D01*
X005862Y001123D01*
X005705Y001188D01*
X005585Y001308D01*
X005520Y001465D01*
X005520Y001635D01*
X005585Y001792D01*
X005705Y001912D01*
X005717Y001917D01*
X005717Y002215D01*
X005689Y002188D01*
X005532Y002123D01*
X005362Y002123D01*
X005205Y002188D01*
X005167Y002225D01*
X005167Y001922D01*
X005189Y001912D01*
X005309Y001792D01*
X005375Y001635D01*
X005375Y001465D01*
X005309Y001308D01*
X005189Y001188D01*
X005032Y001123D01*
X004862Y001123D01*
X004705Y001188D01*
X004585Y001308D01*
X004520Y001465D01*
X004520Y001635D01*
X004585Y001792D01*
X004705Y001912D01*
X004727Y001922D01*
X004727Y002225D01*
X004689Y002188D01*
X004532Y002123D01*
X004362Y002123D01*
X004205Y002188D01*
X004085Y002308D01*
X004020Y002465D01*
X004020Y002635D01*
X004085Y002792D01*
X004205Y002912D01*
X004227Y002922D01*
X004227Y003510D01*
X004183Y003554D01*
X004157Y003528D01*
X004123Y003509D01*
X004085Y003498D01*
X003956Y003498D01*
X003956Y004072D01*
X003938Y004072D01*
X003938Y003498D01*
X003897Y003498D01*
X003897Y001550D01*
X003898Y001535D02*
X004520Y001535D01*
X004520Y001634D02*
X003897Y001634D01*
X003897Y001732D02*
X004560Y001732D01*
X004623Y001831D02*
X003897Y001831D01*
X003897Y001929D02*
X004727Y001929D01*
X004727Y002028D02*
X003897Y002028D01*
X003897Y002126D02*
X004354Y002126D01*
X004540Y002126D02*
X004727Y002126D01*
X004726Y002225D02*
X004727Y002225D01*
X004447Y002550D02*
X004447Y004081D01*
X004017Y004070D02*
X003947Y004081D01*
X004017Y004150D01*
X004017Y004390D01*
X005217Y005590D01*
X005217Y008950D01*
X005057Y009110D01*
X004977Y009110D01*
X004657Y009430D01*
X004657Y009830D01*
X004257Y009830D01*
X004197Y009800D01*
X004247Y009809D02*
X004777Y009809D01*
X004777Y009711D02*
X004597Y009711D01*
X004597Y009750D02*
X004247Y009750D01*
X004247Y009150D01*
X004467Y009150D01*
X004505Y009160D01*
X004539Y009180D01*
X004567Y009208D01*
X004587Y009242D01*
X004597Y009280D01*
X004597Y009750D01*
X004597Y009850D02*
X004247Y009850D01*
X004247Y009750D01*
X004147Y009750D01*
X004147Y009150D01*
X003927Y009150D01*
X003897Y009158D01*
X003897Y008990D01*
X003956Y009015D01*
X004078Y009015D01*
X004187Y008970D01*
X004188Y008973D01*
X004274Y009059D01*
X004386Y009105D01*
X004508Y009105D01*
X004620Y009059D01*
X004697Y008981D01*
X004774Y009059D01*
X004886Y009105D01*
X005008Y009105D01*
X005120Y009059D01*
X005206Y008973D01*
X005252Y008861D01*
X005252Y008739D01*
X005206Y008627D01*
X005168Y008589D01*
X005197Y008560D01*
X005259Y008622D01*
X005392Y008622D01*
X005392Y008711D01*
X005438Y008823D01*
X005524Y008909D01*
X005609Y008944D01*
X005836Y009171D01*
X005777Y009230D01*
X005777Y010350D01*
X005617Y010350D01*
X005617Y009230D01*
X005517Y009130D01*
X004877Y009130D01*
X004777Y009230D01*
X004777Y010350D01*
X004589Y010350D01*
X004597Y010320D01*
X004597Y009850D01*
X004597Y009908D02*
X004777Y009908D01*
X004777Y010006D02*
X004597Y010006D01*
X004597Y010105D02*
X004777Y010105D01*
X004777Y010203D02*
X004597Y010203D01*
X004597Y010302D02*
X004777Y010302D01*
X004777Y009612D02*
X004597Y009612D01*
X004597Y009514D02*
X004777Y009514D01*
X004777Y009415D02*
X004597Y009415D01*
X004597Y009317D02*
X004777Y009317D01*
X004789Y009218D02*
X004573Y009218D01*
X004657Y009021D02*
X004737Y009021D01*
X004947Y008800D02*
X004947Y008019D01*
X004697Y007477D02*
X004759Y007415D01*
X005136Y007415D01*
X005197Y007477D01*
X005237Y007437D01*
X005237Y004699D01*
X005255Y004681D01*
X005197Y004623D01*
X005136Y004685D01*
X004759Y004685D01*
X004697Y004623D01*
X004636Y004685D01*
X004259Y004685D01*
X004183Y004609D01*
X004157Y004635D01*
X004123Y004654D01*
X004085Y004665D01*
X003956Y004665D01*
X003956Y004091D01*
X003938Y004091D01*
X003938Y004665D01*
X003897Y004665D01*
X003897Y007415D01*
X004136Y007415D01*
X004197Y007477D01*
X004259Y007415D01*
X004636Y007415D01*
X004697Y007477D01*
X004665Y007445D02*
X004729Y007445D01*
X005165Y007445D02*
X005229Y007445D01*
X005237Y007347D02*
X003897Y007347D01*
X003897Y007248D02*
X005237Y007248D01*
X005237Y007150D02*
X003897Y007150D01*
X003897Y007051D02*
X005237Y007051D01*
X005237Y006953D02*
X003897Y006953D01*
X003897Y006854D02*
X005237Y006854D01*
X005237Y006756D02*
X003897Y006756D01*
X003897Y006657D02*
X005237Y006657D01*
X005237Y006559D02*
X003897Y006559D01*
X003897Y006460D02*
X005237Y006460D01*
X005237Y006362D02*
X003897Y006362D01*
X003897Y006263D02*
X005237Y006263D01*
X005237Y006165D02*
X003897Y006165D01*
X003897Y006066D02*
X005237Y006066D01*
X005237Y005968D02*
X003897Y005968D01*
X003897Y005869D02*
X005237Y005869D01*
X005237Y005771D02*
X003897Y005771D01*
X003897Y005672D02*
X005237Y005672D01*
X005237Y005574D02*
X003897Y005574D01*
X003897Y005475D02*
X005237Y005475D01*
X005237Y005377D02*
X003897Y005377D01*
X003897Y005278D02*
X005237Y005278D01*
X005237Y005180D02*
X003897Y005180D01*
X003897Y005081D02*
X005237Y005081D01*
X005237Y004983D02*
X003897Y004983D01*
X003897Y004884D02*
X005237Y004884D01*
X005237Y004786D02*
X003897Y004786D01*
X003897Y004687D02*
X005249Y004687D01*
X005457Y004790D02*
X005697Y004550D01*
X005697Y002870D01*
X005937Y002630D01*
X005937Y001590D01*
X005947Y001550D01*
X005653Y001240D02*
X005241Y001240D01*
X005322Y001338D02*
X005572Y001338D01*
X005531Y001437D02*
X005363Y001437D01*
X005375Y001535D02*
X005520Y001535D01*
X005520Y001634D02*
X005375Y001634D01*
X005334Y001732D02*
X005560Y001732D01*
X005623Y001831D02*
X005271Y001831D01*
X005167Y001929D02*
X005717Y001929D01*
X005717Y002028D02*
X005167Y002028D01*
X005167Y002126D02*
X005354Y002126D01*
X005540Y002126D02*
X005717Y002126D01*
X006157Y002126D02*
X006354Y002126D01*
X006540Y002126D02*
X006727Y002126D01*
X006727Y002028D02*
X006157Y002028D01*
X006157Y001929D02*
X006727Y001929D01*
X006623Y001831D02*
X006271Y001831D01*
X006334Y001732D02*
X006560Y001732D01*
X006520Y001634D02*
X006375Y001634D01*
X006375Y001535D02*
X006520Y001535D01*
X006531Y001437D02*
X006363Y001437D01*
X006322Y001338D02*
X006572Y001338D01*
X006653Y001240D02*
X006241Y001240D01*
X006077Y001141D02*
X006817Y001141D01*
X007077Y001141D02*
X007358Y001141D01*
X007537Y001110D02*
X007937Y001510D01*
X007947Y001550D01*
X007976Y001535D02*
X008496Y001535D01*
X008497Y001634D02*
X008346Y001634D01*
X008312Y001732D02*
X008497Y001732D01*
X008497Y001831D02*
X008243Y001831D01*
X008099Y001929D02*
X008497Y001929D01*
X008497Y002028D02*
X007806Y002028D01*
X007795Y001929D02*
X007707Y001929D01*
X007918Y001929D02*
X007976Y001929D01*
X007976Y001831D02*
X007918Y001831D01*
X007918Y001732D02*
X007976Y001732D01*
X007976Y001634D02*
X007918Y001634D01*
X007918Y001437D02*
X007976Y001437D01*
X007976Y001338D02*
X007918Y001338D01*
X007918Y001240D02*
X007976Y001240D01*
X008213Y001240D02*
X008427Y001240D01*
X008459Y001338D02*
X008296Y001338D01*
X008339Y001437D02*
X008488Y001437D01*
X008377Y001141D02*
X007556Y001141D01*
X007537Y001110D02*
X004817Y001110D01*
X004017Y001910D01*
X004017Y004070D01*
X003956Y004096D02*
X003938Y004096D01*
X003938Y003998D02*
X003956Y003998D01*
X003956Y003899D02*
X003938Y003899D01*
X003938Y003801D02*
X003956Y003801D01*
X003956Y003702D02*
X003938Y003702D01*
X003938Y003604D02*
X003956Y003604D01*
X003956Y003505D02*
X003938Y003505D01*
X003897Y003407D02*
X004227Y003407D01*
X004227Y003505D02*
X004109Y003505D01*
X004227Y003308D02*
X003897Y003308D01*
X003897Y003210D02*
X004227Y003210D01*
X004227Y003111D02*
X003897Y003111D01*
X003897Y003013D02*
X004227Y003013D01*
X004209Y002914D02*
X003897Y002914D01*
X003897Y002816D02*
X004108Y002816D01*
X004054Y002717D02*
X003897Y002717D01*
X003897Y002619D02*
X004020Y002619D01*
X004020Y002520D02*
X003897Y002520D01*
X003897Y002422D02*
X004038Y002422D01*
X004078Y002323D02*
X003897Y002323D01*
X003897Y002225D02*
X004168Y002225D01*
X003906Y001437D02*
X004531Y001437D01*
X004572Y001338D02*
X003935Y001338D01*
X003967Y001240D02*
X004653Y001240D01*
X004817Y001141D02*
X004018Y001141D01*
X004089Y001043D02*
X008305Y001043D01*
X008207Y000944D02*
X004187Y000944D01*
X004322Y000846D02*
X008072Y000846D01*
X007457Y001430D02*
X007457Y001990D01*
X007857Y002390D01*
X007857Y003030D01*
X007697Y003190D01*
X007697Y005990D01*
X006017Y007670D01*
X006017Y007990D01*
X005947Y008019D01*
X005457Y007990D02*
X005447Y008019D01*
X005457Y007990D02*
X005457Y004790D01*
X005447Y004081D02*
X005447Y003300D01*
X005947Y003300D02*
X005947Y004081D01*
X006447Y004081D02*
X006447Y002550D01*
X006168Y002225D02*
X006157Y002225D01*
X006726Y002225D02*
X006727Y002225D01*
X006947Y001550D02*
X006947Y004081D01*
X007447Y004081D02*
X007447Y003300D01*
X007947Y003300D02*
X007947Y004081D01*
X008173Y003505D02*
X008232Y003505D01*
X008233Y003407D02*
X008497Y003407D01*
X008497Y003308D02*
X008252Y003308D01*
X008240Y003210D02*
X008497Y003210D01*
X008497Y003111D02*
X008189Y003111D01*
X008077Y003013D02*
X008497Y003013D01*
X008497Y002914D02*
X008077Y002914D01*
X008077Y002816D02*
X008497Y002816D01*
X008497Y002717D02*
X008077Y002717D01*
X008077Y002619D02*
X008497Y002619D01*
X008497Y002520D02*
X008077Y002520D01*
X008077Y002422D02*
X008497Y002422D01*
X008497Y002323D02*
X008077Y002323D01*
X008003Y002225D02*
X008497Y002225D01*
X008497Y002126D02*
X007904Y002126D01*
X008447Y004081D02*
X008417Y004150D01*
X008417Y005750D01*
X008097Y006070D01*
X008337Y007350D02*
X008337Y007910D01*
X008417Y007990D01*
X008447Y008019D01*
X007947Y008019D02*
X007947Y008800D01*
X008197Y009050D01*
X008197Y009800D01*
X007377Y008870D02*
X007377Y008070D01*
X007447Y008019D01*
X006947Y008019D02*
X006947Y008800D01*
X007197Y009050D01*
X007197Y009800D01*
X006577Y009110D02*
X006497Y009030D01*
X006497Y008070D01*
X006447Y008019D01*
X005686Y009021D02*
X005157Y009021D01*
X005226Y008923D02*
X005558Y008923D01*
X005440Y008824D02*
X005252Y008824D01*
X005246Y008726D02*
X005398Y008726D01*
X005392Y008627D02*
X005205Y008627D01*
X005605Y009218D02*
X005789Y009218D01*
X005785Y009120D02*
X003897Y009120D01*
X003897Y009021D02*
X004237Y009021D01*
X004247Y009218D02*
X004147Y009218D01*
X004147Y009317D02*
X004247Y009317D01*
X004247Y009415D02*
X004147Y009415D01*
X004147Y009514D02*
X004247Y009514D01*
X004247Y009612D02*
X004147Y009612D01*
X004147Y009711D02*
X004247Y009711D01*
X004447Y008800D02*
X004447Y008019D01*
X004017Y008070D02*
X003947Y008019D01*
X004017Y008070D02*
X004017Y008710D01*
X004165Y007445D02*
X004229Y007445D01*
X005617Y009317D02*
X005777Y009317D01*
X005777Y009415D02*
X005617Y009415D01*
X005617Y009514D02*
X005777Y009514D01*
X005777Y009612D02*
X005617Y009612D01*
X005617Y009711D02*
X005777Y009711D01*
X005777Y009809D02*
X005617Y009809D01*
X005617Y009908D02*
X005777Y009908D01*
X005777Y010006D02*
X005617Y010006D01*
X005617Y010105D02*
X005777Y010105D01*
X005777Y010203D02*
X005617Y010203D01*
X005617Y010302D02*
X005777Y010302D01*
X003956Y004589D02*
X003938Y004589D01*
X003938Y004490D02*
X003956Y004490D01*
X003956Y004392D02*
X003938Y004392D01*
X003938Y004293D02*
X003956Y004293D01*
X003956Y004195D02*
X003938Y004195D01*
X004947Y004081D02*
X004947Y001550D01*
X005077Y001141D02*
X005817Y001141D01*
X005167Y002225D02*
X005168Y002225D01*
D14*
X005447Y003300D03*
X005947Y003300D03*
X007447Y003300D03*
X007947Y003300D03*
X007457Y001430D03*
X008097Y006070D03*
X008337Y007350D03*
X007377Y008870D03*
X006577Y009110D03*
X005697Y008650D03*
X004947Y008800D03*
X004447Y008800D03*
X004017Y008710D03*
X004657Y009830D03*
D15*
X005697Y008650D02*
X006197Y009150D01*
X006197Y009800D01*
M02*
