G75*
%MOIN*%
%OFA0B0*%
%FSLAX24Y24*%
%IPPOS*%
%LPD*%
%AMOC8*
5,1,8,0,0,1.08239X$1,22.5*
%
%ADD10C,0.0050*%
%ADD11C,0.0060*%
%ADD12R,0.1000X0.1500*%
%ADD13C,0.0080*%
%ADD14C,0.0040*%
D10*
X003972Y003150D02*
X004047Y003075D01*
X004122Y003075D01*
X004197Y003150D01*
X004197Y003300D01*
X004272Y003375D01*
X004347Y003375D01*
X004422Y003300D01*
X004422Y003150D01*
X004347Y003075D01*
X004047Y003375D02*
X003972Y003300D01*
X003972Y003150D01*
X003972Y003535D02*
X003972Y003836D01*
X003972Y003686D02*
X004422Y003686D01*
X004422Y003996D02*
X004122Y003996D01*
X003972Y004146D01*
X004122Y004296D01*
X004422Y004296D01*
X004422Y004456D02*
X004422Y004756D01*
X004422Y004917D02*
X004422Y005217D01*
X004422Y004917D02*
X003972Y004917D01*
X003972Y004456D02*
X004422Y004456D01*
X004197Y004296D02*
X004197Y003996D01*
X004197Y005950D02*
X004297Y006050D01*
X004197Y005950D02*
X004097Y006050D01*
X004197Y006150D02*
X004197Y005950D01*
X004657Y005900D02*
X004657Y007200D01*
X007237Y007200D01*
X007237Y005900D01*
X004657Y005900D01*
X006122Y008675D02*
X006047Y008750D01*
X006122Y008675D02*
X006272Y008675D01*
X006347Y008750D01*
X006347Y008825D01*
X006272Y008900D01*
X006122Y008900D01*
X006047Y008975D01*
X006047Y009050D01*
X006122Y009125D01*
X006272Y009125D01*
X006347Y009050D01*
X006972Y009028D02*
X006972Y008878D01*
X007047Y008803D01*
X007347Y008803D01*
X007422Y008878D01*
X007422Y009028D01*
X007347Y009103D01*
X007047Y009103D01*
X006972Y009028D01*
X007047Y008643D02*
X006972Y008568D01*
X006972Y008417D01*
X007047Y008342D01*
X007122Y008342D01*
X007197Y008417D01*
X007197Y008568D01*
X007272Y008643D01*
X007347Y008643D01*
X007422Y008568D01*
X007422Y008417D01*
X007347Y008342D01*
X007422Y008186D02*
X007422Y008035D01*
X007422Y008110D02*
X006972Y008110D01*
X006972Y008035D02*
X006972Y008186D01*
X006972Y007875D02*
X007422Y007875D01*
X007422Y007575D02*
X006972Y007575D01*
X007122Y007725D01*
X006972Y007875D01*
X007972Y007825D02*
X007972Y008050D01*
X008047Y008125D01*
X008197Y008125D01*
X008272Y008050D01*
X008272Y007825D01*
X008272Y007975D02*
X008422Y008125D01*
X008347Y008285D02*
X008422Y008360D01*
X008422Y008511D01*
X008347Y008586D01*
X008272Y008586D01*
X008197Y008511D01*
X008197Y008360D01*
X008122Y008285D01*
X008047Y008285D01*
X007972Y008360D01*
X007972Y008511D01*
X008047Y008586D01*
X007972Y008746D02*
X007972Y009046D01*
X007972Y008896D02*
X008422Y008896D01*
X008422Y007825D02*
X007972Y007825D01*
X006669Y001185D02*
X006433Y001185D01*
X006355Y001126D01*
X006040Y001126D01*
X005961Y001185D01*
X005725Y001185D01*
X005715Y001027D01*
X005715Y000713D01*
X006679Y000713D01*
X006679Y001027D01*
X006669Y001185D01*
X006276Y000870D02*
X006197Y000791D01*
X006118Y000870D01*
X006197Y000949D02*
X006197Y000791D01*
D11*
X005441Y008687D02*
X005441Y009114D01*
X005654Y008900D02*
X005227Y008900D01*
D12*
X004197Y009800D03*
D13*
X004197Y009050D02*
X004197Y008550D01*
X004497Y008550D01*
X004397Y008350D02*
X003997Y008350D01*
X003897Y008550D02*
X004197Y008550D01*
X004097Y008150D02*
X004297Y008150D01*
X004447Y006550D02*
X003947Y006550D01*
X003947Y005550D01*
X004447Y005550D01*
X004447Y006550D01*
X006697Y007550D02*
X006697Y010550D01*
X007697Y010550D02*
X007697Y009050D01*
D14*
X007627Y004547D02*
X007627Y004307D01*
X007627Y004427D02*
X007267Y004427D01*
X007387Y004307D01*
X007327Y004179D02*
X007267Y004118D01*
X007267Y003938D01*
X007627Y003938D01*
X007627Y004118D01*
X007567Y004179D01*
X007327Y004179D01*
X007327Y003810D02*
X007447Y003810D01*
X007507Y003750D01*
X007507Y003570D01*
X007627Y003570D02*
X007267Y003570D01*
X007267Y003750D01*
X007327Y003810D01*
X007767Y003750D02*
X007767Y003570D01*
X008127Y003570D01*
X008007Y003570D02*
X008007Y003750D01*
X007947Y003810D01*
X007827Y003810D01*
X007767Y003750D01*
X007767Y003938D02*
X007767Y004118D01*
X007827Y004179D01*
X008067Y004179D01*
X008127Y004118D01*
X008127Y003938D01*
X007767Y003938D01*
X007827Y004307D02*
X007767Y004367D01*
X007767Y004487D01*
X007827Y004547D01*
X008067Y004307D01*
X008127Y004367D01*
X008127Y004487D01*
X008067Y004547D01*
X007827Y004547D01*
X007827Y004307D02*
X008067Y004307D01*
X006127Y004307D02*
X005887Y004547D01*
X005827Y004547D01*
X005767Y004487D01*
X005767Y004367D01*
X005827Y004307D01*
X005827Y004179D02*
X005767Y004118D01*
X005767Y003938D01*
X006127Y003938D01*
X006127Y004118D01*
X006067Y004179D01*
X005827Y004179D01*
X005627Y004118D02*
X005627Y003938D01*
X005267Y003938D01*
X005267Y004118D01*
X005327Y004179D01*
X005567Y004179D01*
X005627Y004118D01*
X005567Y004307D02*
X005627Y004367D01*
X005627Y004487D01*
X005567Y004547D01*
X005507Y004547D01*
X005447Y004487D01*
X005447Y004427D01*
X005447Y004487D02*
X005387Y004547D01*
X005327Y004547D01*
X005267Y004487D01*
X005267Y004367D01*
X005327Y004307D01*
X005327Y003810D02*
X005447Y003810D01*
X005507Y003750D01*
X005507Y003570D01*
X005627Y003570D02*
X005267Y003570D01*
X005267Y003750D01*
X005327Y003810D01*
X005767Y003750D02*
X005767Y003570D01*
X006127Y003570D01*
X006007Y003570D02*
X006007Y003750D01*
X005947Y003810D01*
X005827Y003810D01*
X005767Y003750D01*
X006127Y004307D02*
X006127Y004547D01*
M02*
